<svg width="49" height="49" viewBox="0 0 49 49" fill="none" xmlns="http://www.w3.org/2000/svg">
<mask id="mask0_116_32" style="mask-type:alpha" maskUnits="userSpaceOnUse" x="0" y="0" width="49" height="49">
<rect x="0.052063" y="0.601562" width="48" height="48" fill="#D9D9D9"/>
</mask>
<g mask="url(#mask0_116_32)">
<path d="M5.24457 37.8321V34.5396C5.24457 33.6113 5.4849 32.8131 5.96557 32.1451C6.44623 31.4774 7.09223 30.9438 7.90357 30.5441C9.63857 29.7181 11.3611 29.0596 13.0711 28.5686C14.7814 28.0776 16.8392 27.8321 19.2446 27.8321C21.6496 27.8321 23.7072 28.0776 25.4176 28.5686C27.1279 29.0596 28.8504 29.7181 30.5851 30.5441C31.3964 30.9438 32.0424 31.4774 32.5231 32.1451C33.0041 32.8131 33.2446 33.6113 33.2446 34.5396V37.8321H5.24457ZM37.2446 37.8321V34.4471C37.2446 33.2881 37.0099 32.1941 36.5406 31.1651C36.0716 30.1361 35.4062 29.2533 34.5446 28.5166C35.5266 28.7166 36.4727 28.9941 37.3831 29.3491C38.2931 29.7045 39.1931 30.1038 40.0831 30.5471C40.9497 30.9831 41.6292 31.541 42.1216 32.2206C42.6136 32.9006 42.8596 33.6428 42.8596 34.4471V37.8321H37.2446ZM19.2446 23.3701C17.5946 23.3701 16.1821 22.7826 15.0071 21.6076C13.8321 20.4326 13.2446 19.0201 13.2446 17.3701C13.2446 15.7201 13.8321 14.3076 15.0071 13.1326C16.1821 11.9576 17.5946 11.3701 19.2446 11.3701C20.8946 11.3701 22.3071 11.9576 23.4821 13.1326C24.6571 14.3076 25.2446 15.7201 25.2446 17.3701C25.2446 19.0201 24.6571 20.4326 23.4821 21.6076C22.3071 22.7826 20.8946 23.3701 19.2446 23.3701ZM33.7831 17.3701C33.7831 19.0201 33.1956 20.4326 32.0206 21.6076C30.8456 22.7826 29.4331 23.3701 27.7831 23.3701C27.6984 23.3701 27.5906 23.3606 27.4596 23.3416C27.3289 23.3223 27.2212 23.3011 27.1366 23.2781C27.8142 22.4481 28.3349 21.5274 28.6986 20.5161C29.0626 19.5048 29.2446 18.4546 29.2446 17.3656C29.2446 16.2766 29.0541 15.2359 28.6731 14.2436C28.2924 13.2513 27.7802 12.3243 27.1366 11.4626C27.2442 11.4243 27.3519 11.3993 27.4596 11.3876C27.5672 11.3759 27.6751 11.3701 27.7831 11.3701C29.4331 11.3701 30.8456 11.9576 32.0206 13.1326C33.1956 14.3076 33.7831 15.7201 33.7831 17.3701ZM7.24457 35.8321H31.2446V34.5396C31.2446 34.0703 31.1272 33.66 30.8926 33.3086C30.6579 32.9576 30.2367 32.6218 29.6291 32.3011C28.1367 31.5038 26.5636 30.893 24.9096 30.4686C23.2559 30.0443 21.3676 29.8321 19.2446 29.8321C17.1212 29.8321 15.2327 30.0443 13.5791 30.4686C11.9251 30.893 10.3519 31.5038 8.85957 32.3011C8.2519 32.6218 7.83073 32.9576 7.59607 33.3086C7.36173 33.66 7.24457 34.0703 7.24457 34.5396V35.8321ZM19.2446 21.3701C20.3446 21.3701 21.2862 20.9785 22.0696 20.1951C22.8529 19.4118 23.2446 18.4701 23.2446 17.3701C23.2446 16.2701 22.8529 15.3285 22.0696 14.5451C21.2862 13.7618 20.3446 13.3701 19.2446 13.3701C18.1446 13.3701 17.2029 13.7618 16.4196 14.5451C15.6362 15.3285 15.2446 16.2701 15.2446 17.3701C15.2446 18.4701 15.6362 19.4118 16.4196 20.1951C17.2029 20.9785 18.1446 21.3701 19.2446 21.3701Z" fill="#1C1B1F"/>
</g>
</svg>
