<svg width="49" height="49" viewBox="0 0 49 49" fill="none" xmlns="http://www.w3.org/2000/svg">
<mask id="mask0_113_1540" style="mask-type:alpha" maskUnits="userSpaceOnUse" x="0" y="0" width="49" height="49">
<rect x="0.052063" y="0.601562" width="48" height="48" fill="#D9D9D9"/>
</mask>
<g mask="url(#mask0_113_1540)">
<path d="M14.0521 17.5626L17.3211 14.3321L14.0521 11.1011L10.8211 14.3321L14.0521 17.5626ZM9.28306 28.1396C8.3624 28.1396 7.59373 27.8313 6.97706 27.2146C6.3604 26.598 6.05206 25.8293 6.05206 24.9086V9.37015C6.05206 8.44981 6.3604 7.68132 6.97706 7.06465C7.59373 6.44798 8.3624 6.13965 9.28306 6.13965H38.8211C39.7417 6.13965 40.5104 6.44798 41.1271 7.06465C41.7437 7.68132 42.0521 8.44981 42.0521 9.37015V24.9086C42.0521 25.8293 41.7437 26.598 41.1271 27.2146C40.5104 27.8313 39.7417 28.1396 38.8211 28.1396H32.6791C32.7404 27.8063 32.7814 27.473 32.8021 27.1396C32.8227 26.8063 32.8252 26.473 32.8096 26.1396H38.8211C39.1291 26.1396 39.4112 26.0115 39.6676 25.7551C39.9239 25.4985 40.0521 25.2163 40.0521 24.9086V9.37015C40.0521 9.06248 39.9239 8.78048 39.6676 8.52415C39.4112 8.26782 39.1291 8.13965 38.8211 8.13965H9.28306C8.97506 8.13965 8.6929 8.26782 8.43656 8.52415C8.18023 8.78048 8.05206 9.06248 8.05206 9.37015V24.9086C8.05206 25.2163 8.18023 25.4985 8.43656 25.7551C8.6929 26.0115 8.97506 26.1396 9.28306 26.1396H15.2946C15.2789 26.473 15.2814 26.8063 15.3021 27.1396C15.3227 27.473 15.3637 27.8063 15.4251 28.1396H9.28306ZM33.0476 15.1396C33.6019 15.1396 34.0746 14.9456 34.4656 14.5576C34.8566 14.1696 35.0521 13.6985 35.0521 13.1441C35.0521 12.5898 34.8581 12.1171 34.4701 11.7261C34.0821 11.3351 33.6109 11.1396 33.0566 11.1396C32.5022 11.1396 32.0296 11.3336 31.6386 11.7216C31.2476 12.1096 31.0521 12.5808 31.0521 13.1351C31.0521 13.6895 31.2461 14.1621 31.6341 14.5531C32.0221 14.9441 32.4932 15.1396 33.0476 15.1396ZM12.0521 43.0626V40.2472C12.0521 39.4651 12.2681 38.7345 12.7001 38.0552C13.1321 37.3755 13.7147 36.8755 14.4481 36.5552C15.9791 35.8652 17.5446 35.3413 19.1446 34.9837C20.7446 34.626 22.3804 34.4472 24.0521 34.4472C25.7237 34.4472 27.3596 34.626 28.9596 34.9837C30.5596 35.3413 32.1251 35.8652 33.6561 36.5552C34.3894 36.8755 34.9721 37.3723 35.4041 38.0457C35.8361 38.7193 36.0521 39.449 36.0521 40.2346V43.0626H12.0521ZM14.0521 41.0626H34.0521V40.2472C34.0521 39.8471 33.9354 39.4805 33.7021 39.1471C33.4687 38.8138 33.1687 38.5638 32.8021 38.3971C31.4021 37.7638 29.9687 37.2805 28.5021 36.9471C27.0354 36.6138 25.5521 36.4471 24.0521 36.4471C22.5521 36.4471 21.0687 36.6138 19.6021 36.9471C18.1354 37.2805 16.7021 37.7638 15.3021 38.3971C14.9354 38.5638 14.6354 38.8138 14.4021 39.1471C14.1687 39.4805 14.0521 39.8471 14.0521 40.2472V41.0626ZM24.0521 31.6782C22.6571 31.6782 21.4751 31.1935 20.5061 30.2241C19.5367 29.2548 19.0521 28.0728 19.0521 26.6782C19.0521 25.2831 19.5367 24.1011 20.5061 23.1321C21.4751 22.1628 22.6571 21.6781 24.0521 21.6781C25.4471 21.6781 26.6291 22.1628 27.5981 23.1321C28.5674 24.1011 29.0521 25.2831 29.0521 26.6782C29.0521 28.0728 28.5674 29.2548 27.5981 30.2241C26.6291 31.1935 25.4471 31.6782 24.0521 31.6782ZM24.0521 29.6782C24.8854 29.6782 25.5937 29.3865 26.1771 28.8032C26.7604 28.2198 27.0521 27.5115 27.0521 26.6782C27.0521 25.8448 26.7604 25.1365 26.1771 24.5532C25.5937 23.9698 24.8854 23.6782 24.0521 23.6782C23.2187 23.6782 22.5104 23.9698 21.9271 24.5532C21.3437 25.1365 21.0521 25.8448 21.0521 26.6782C21.0521 27.5115 21.3437 28.2198 21.9271 28.8032C22.5104 29.3865 23.2187 29.6782 24.0521 29.6782Z" fill="#1C1B1F"/>
</g>
</svg>
