<svg width="64" height="65" viewBox="0 0 64 65" fill="none" xmlns="http://www.w3.org/2000/svg">
<path d="M58.6693 32.5002C58.6693 47.2278 46.7302 59.1668 32.0026 59.1668M58.6693 32.5002C58.6693 17.7726 46.7302 5.8335 32.0026 5.8335M58.6693 32.5002H5.33594M32.0026 59.1668C17.275 59.1668 5.33594 47.2278 5.33594 32.5002M32.0026 59.1668C25.1552 51.9771 21.3359 42.4289 21.3359 32.5002C21.3359 22.5715 25.1552 13.0232 32.0026 5.8335M32.0026 59.1668C38.85 51.9771 42.6693 42.4289 42.6693 32.5002C42.6693 22.5715 38.85 13.0232 32.0026 5.8335M5.33594 32.5002C5.33594 17.7726 17.275 5.8335 32.0026 5.8335" stroke="black" stroke-width="2" stroke-linecap="round" stroke-linejoin="round"/>
</svg>
