<svg width="37" height="28" viewBox="0 0 37 28" fill="none" xmlns="http://www.w3.org/2000/svg">
<g clip-path="url(#clip0_199_23)">
<path d="M0 0H37V28H0V0Z" fill="#EE1C25"/>
<path d="M4.44623 10.3588L6.9437 2.79883L9.44117 10.3588L2.78125 5.73883H11.1061L4.44623 10.3588Z" fill="#FFFF00"/>
<path d="M15.2711 2.94508L12.7009 3.51979L14.4153 1.50398L14.2472 4.21699L12.8209 1.81516L15.2711 2.94508Z" fill="#FFFF00"/>
<path d="M17.8708 6.26197L15.2808 5.78588L17.6359 4.59877L16.4381 7.03362L16.0466 4.26163L17.8708 6.26197Z" fill="#FFFF00"/>
<path d="M17.4835 10.9162L15.3112 9.41568L17.9413 9.30098L15.8635 11.0312L16.6265 8.33911L17.4835 10.9162Z" fill="#FFFF00"/>
<path d="M14.2184 13.9542L12.789 11.7235L15.2589 12.6427L12.6801 13.4289L14.4143 11.2431L14.2184 13.9542Z" fill="#FFFF00"/>
</g>
<defs>
<clipPath id="clip0_199_23">
<rect width="37" height="28" rx="2" fill="white"/>
</clipPath>
</defs>
</svg>
