<svg width="37" height="33" viewBox="0 0 37 33" fill="none" xmlns="http://www.w3.org/2000/svg">
<rect x="14" y="29" width="4" height="4" fill="#0000FF"/>
<g clip-path="url(#clip0_971_452)">
<path d="M37 22.7498C37 23.8401 36.5669 24.8858 35.7959 25.6568C35.0249 26.4278 33.9792 26.8609 32.8889 26.8609H4.11111C3.02078 26.8609 1.9751 26.4278 1.20412 25.6568C0.433134 24.8858 0 23.8401 0 22.7498V4.24978C0 3.15945 0.433134 2.11377 1.20412 1.34279C1.9751 0.571805 3.02078 0.138672 4.11111 0.138672H32.8889C33.9792 0.138672 35.0249 0.571805 35.7959 1.34279C36.5669 2.11377 37 3.15945 37 4.24978V22.7498Z" fill="#DE2910"/>
<path d="M11.4453 4.2256L12.2018 4.59149L12.8071 4.00977L12.6931 4.84227L13.4331 5.23899L12.6067 5.38699L12.4587 6.21332L12.062 5.47332L11.2295 5.5874L11.8112 4.98204L11.4453 4.2256ZM16.2399 7.24829L15.874 8.00371L16.4558 8.6101L15.6243 8.49499L15.2276 9.23602L15.0796 8.40865L14.2522 8.26065L14.9932 7.86393L14.8781 7.03246L15.4845 7.61418L16.2399 7.24829ZM15.2563 11.1323L15.5318 11.9257L16.3715 11.9432L15.7024 12.4499L15.946 13.2546L15.2563 12.7747L14.5667 13.2546L14.8093 12.4499L14.1402 11.9432L14.9799 11.9257L15.2563 11.1323ZM11.4453 14.5034L12.2018 14.8693L12.8071 14.2875L12.6931 15.12L13.4331 15.5168L12.6067 15.6648L12.4587 16.4911L12.062 15.7511L11.2295 15.8652L11.8112 15.2598L11.4453 14.5034ZM7.19445 6.25443L8.14926 8.99963L11.0538 9.05924L8.73817 10.8147L9.57992 13.5958L7.19445 11.936L4.80898 13.5958L5.65073 10.8147L3.33514 9.05924L6.23964 8.99963L7.19445 6.25443Z" fill="#FFDE02"/>
</g>
<defs>
<clipPath id="clip0_971_452">
<rect width="37" height="27" fill="white"/>
</clipPath>
</defs>
</svg>
