<svg width="37" height="33" viewBox="0 0 37 33" fill="none" xmlns="http://www.w3.org/2000/svg">
<g clip-path="url(#clip0_971_468)">
<path d="M37 22.7498C37 23.8401 36.5669 24.8858 35.7959 25.6568C35.0249 26.4278 33.9792 26.8609 32.8889 26.8609H24.6667V0.138672H32.8889C33.9792 0.138672 35.0249 0.571805 35.7959 1.34279C36.5669 2.11377 37 3.15945 37 4.24978V22.7498Z" fill="#ED2939"/>
<path d="M4.11111 0.138672C3.02078 0.138672 1.9751 0.571805 1.20412 1.34279C0.433134 2.11377 0 3.15945 0 4.24978L0 22.7498C0 23.8401 0.433134 24.8858 1.20412 25.6568C1.9751 26.4278 3.02078 26.8609 4.11111 26.8609H12.3333V0.138672H4.11111Z" fill="#002495"/>
<path d="M12.3333 0.138672H24.6666V26.8609H12.3333V0.138672Z" fill="#EEEEEE"/>
</g>
<rect x="14" y="29" width="4" height="4" fill="#0000FF"/>
<defs>
<clipPath id="clip0_971_468">
<rect width="37" height="27" fill="white"/>
</clipPath>
</defs>
</svg>
