<svg width="37" height="33" viewBox="0 0 37 33" fill="none" xmlns="http://www.w3.org/2000/svg">
<g clip-path="url(#clip0_971_469)">
<path d="M0 22.7498C0 23.8401 0.433134 24.8858 1.20412 25.6568C1.9751 26.4278 3.02078 26.8609 4.11111 26.8609H32.8889C33.9792 26.8609 35.0249 26.4278 35.7959 25.6568C36.5669 24.8858 37 23.8401 37 22.7498V18.6387H0V22.7498Z" fill="#FFCD05"/>
<path d="M0 9.38867H37V18.6387H0V9.38867Z" fill="#ED1F24"/>
<path d="M32.8889 0.138672H4.11111C3.02078 0.138672 1.9751 0.571805 1.20412 1.34279C0.433134 2.11377 0 3.15945 0 4.24978L0 9.38867H37V4.24978C37 3.15945 36.5669 2.11377 35.7959 1.34279C35.0249 0.571805 33.9792 0.138672 32.8889 0.138672Z" fill="#141414"/>
</g>
<rect x="14" y="29" width="4" height="4" fill="#0000FF"/>
<defs>
<clipPath id="clip0_971_469">
<rect width="37" height="27" fill="white"/>
</clipPath>
</defs>
</svg>
