<svg width="37" height="27" viewBox="0 0 37 27" fill="none" xmlns="http://www.w3.org/2000/svg">
<g clip-path="url(#clip0_956_442)">
<path d="M0 22.7502C0 23.8406 0.433134 24.8862 1.20412 25.6572C1.9751 26.4282 3.02078 26.8613 4.11111 26.8613H32.8889C33.9792 26.8613 35.0249 26.4282 35.7959 25.6572C36.5669 24.8862 37 23.8406 37 22.7502V17.6113H0V22.7502Z" fill="#138808"/>
<path d="M37 9.38867V4.24978C37 3.15945 36.5669 2.11377 35.7959 1.34279C35.0249 0.571805 33.9792 0.138672 32.8889 0.138672H4.11111C3.02078 0.138672 1.9751 0.571805 1.20412 1.34279C0.433134 2.11377 0 3.15945 0 4.24978L0 9.38867H37Z" fill="#FF9933"/>
<path d="M0 9.04688H37V17.9546H0V9.04688Z" fill="#F7F7F7"/>
<path d="M18.5 17.6109C20.7705 17.6109 22.6111 15.7703 22.6111 13.4998C22.6111 11.2293 20.7705 9.38867 18.5 9.38867C16.2295 9.38867 14.3889 11.2293 14.3889 13.4998C14.3889 15.7703 16.2295 17.6109 18.5 17.6109Z" fill="#000080"/>
<path d="M18.5 16.9688C20.4157 16.9688 21.9688 15.4157 21.9688 13.5C21.9688 11.5843 20.4157 10.0312 18.5 10.0312C16.5843 10.0312 15.0312 11.5843 15.0312 13.5C15.0312 15.4157 16.5843 16.9688 18.5 16.9688Z" fill="#F7F7F7"/>
<path d="M18.6028 12.2151L18.5 12.8832L18.3972 12.2151L18.5 10.2109L18.6028 12.2151ZM17.649 10.323L18.0683 12.285L18.3407 12.9037L18.2667 12.2326L17.649 10.323ZM16.8556 10.6519L17.7682 12.4381L18.1917 12.9654L17.9471 12.3354L16.8556 10.6519ZM16.1741 11.174L17.5185 12.6642L18.0642 13.064L17.6644 12.5183L16.1741 11.174ZM15.652 11.8554L17.3355 12.9469L17.9656 13.1915L17.4383 12.768L15.652 11.8554ZM15.3231 12.6488L17.2328 13.2665L17.9039 13.3405L17.2852 13.0682L15.3231 12.6488ZM15.2111 13.4998L17.2153 13.6026L17.8833 13.4998L17.2153 13.397L15.2111 13.4998ZM15.3231 14.3508L17.2852 13.9315L17.9039 13.6591L17.2328 13.7331L15.3231 14.3508ZM15.652 15.1443L17.4383 14.2316L17.9656 13.8082L17.3355 14.0528L15.652 15.1443ZM16.1741 15.8257L17.6644 14.4814L18.0642 13.9356L17.5185 14.3354L16.1741 15.8257ZM16.8556 16.3478L17.9471 14.6643L18.1917 14.0343L17.7682 14.5615L16.8556 16.3478ZM17.649 16.6767L18.2667 14.7671L18.3407 14.0959L18.0683 14.7147L17.649 16.6767ZM18.5 16.7887L18.6028 14.7845L18.5 14.1165L18.3972 14.7845L18.5 16.7887ZM19.351 16.6767L18.9317 14.7147L18.6593 14.0959L18.7333 14.7671L19.351 16.6767ZM20.1444 16.3478L19.2318 14.5615L18.8083 14.0343L19.0529 14.6643L20.1444 16.3478ZM20.8259 15.8257L19.4815 14.3354L18.9358 13.9356L19.3356 14.4814L20.8259 15.8257ZM21.348 15.1443L19.6645 14.0528L19.0344 13.8082L19.5617 14.2316L21.348 15.1443ZM21.6769 14.3508L19.7673 13.7331L19.0961 13.6591L19.7148 13.9315L21.6769 14.3508ZM21.7889 13.4998L19.7847 13.397L19.1167 13.4998L19.7847 13.6026L21.7889 13.4998ZM21.6769 12.6488L19.7148 13.0682L19.0961 13.3405L19.7673 13.2665L21.6769 12.6488ZM21.348 11.8554L19.5617 12.768L19.0344 13.1915L19.6645 12.9469L21.348 11.8554ZM20.8259 11.174L19.3356 12.5183L18.9358 13.064L19.4815 12.6642L20.8259 11.174ZM20.1444 10.6519L19.0529 12.3354L18.8083 12.9654L19.2318 12.4381L20.1444 10.6519ZM19.351 10.323L18.7333 12.2326L18.6593 12.9037L18.9317 12.285L19.351 10.323Z" fill="#6666B3"/>
<path d="M18.0478 10.2724C18.1613 10.2724 18.2533 10.1804 18.2533 10.0669C18.2533 9.95336 18.1613 9.86133 18.0478 9.86133C17.9343 9.86133 17.8422 9.95336 17.8422 10.0669C17.8422 10.1804 17.9343 10.2724 18.0478 10.2724Z" fill="#000080"/>
<path d="M17.1742 10.5068C17.2877 10.5068 17.3797 10.4148 17.3797 10.3013C17.3797 10.1877 17.2877 10.0957 17.1742 10.0957C17.0606 10.0957 16.9686 10.1877 16.9686 10.3013C16.9686 10.4148 17.0606 10.5068 17.1742 10.5068Z" fill="#000080"/>
<path d="M16.391 10.958C16.5045 10.958 16.5966 10.866 16.5966 10.7524C16.5966 10.6389 16.5045 10.5469 16.391 10.5469C16.2775 10.5469 16.1854 10.6389 16.1854 10.7524C16.1854 10.866 16.2775 10.958 16.391 10.958Z" fill="#000080"/>
<path d="M15.7517 11.5967C15.8653 11.5967 15.9573 11.5046 15.9573 11.3911C15.9573 11.2776 15.8653 11.1855 15.7517 11.1855C15.6382 11.1855 15.5462 11.2776 15.5462 11.3911C15.5462 11.5046 15.6382 11.5967 15.7517 11.5967Z" fill="#000080"/>
<path d="M15.3005 12.3799C15.4141 12.3799 15.5061 12.2878 15.5061 12.1743C15.5061 12.0608 15.4141 11.9688 15.3005 11.9688C15.187 11.9688 15.095 12.0608 15.095 12.1743C15.095 12.2878 15.187 12.3799 15.3005 12.3799Z" fill="#000080"/>
<path d="M15.0662 13.2549C15.1797 13.2549 15.2718 13.1628 15.2718 13.0493C15.2718 12.9358 15.1797 12.8438 15.0662 12.8438C14.9527 12.8438 14.8606 12.9358 14.8606 13.0493C14.8606 13.1628 14.9527 13.2549 15.0662 13.2549Z" fill="#000080"/>
<path d="M15.0662 14.1592C15.1797 14.1592 15.2718 14.0671 15.2718 13.9536C15.2718 13.8401 15.1797 13.748 15.0662 13.748C14.9527 13.748 14.8606 13.8401 14.8606 13.9536C14.8606 14.0671 14.9527 14.1592 15.0662 14.1592Z" fill="#000080"/>
<path d="M15.3005 15.0322C15.4141 15.0322 15.5061 14.9402 15.5061 14.8267C15.5061 14.7131 15.4141 14.6211 15.3005 14.6211C15.187 14.6211 15.095 14.7131 15.095 14.8267C15.095 14.9402 15.187 15.0322 15.3005 15.0322Z" fill="#000080"/>
<path d="M15.7517 15.8154C15.8653 15.8154 15.9573 15.7234 15.9573 15.6099C15.9573 15.4963 15.8653 15.4043 15.7517 15.4043C15.6382 15.4043 15.5462 15.4963 15.5462 15.6099C15.5462 15.7234 15.6382 15.8154 15.7517 15.8154Z" fill="#000080"/>
<path d="M16.391 16.4541C16.5045 16.4541 16.5966 16.362 16.5966 16.2485C16.5966 16.135 16.5045 16.043 16.391 16.043C16.2775 16.043 16.1854 16.135 16.1854 16.2485C16.1854 16.362 16.2775 16.4541 16.391 16.4541Z" fill="#000080"/>
<path d="M17.1742 16.9053C17.2877 16.9053 17.3797 16.8132 17.3797 16.6997C17.3797 16.5862 17.2877 16.4941 17.1742 16.4941C17.0606 16.4941 16.9686 16.5862 16.9686 16.6997C16.9686 16.8132 17.0606 16.9053 17.1742 16.9053Z" fill="#000080"/>
<path d="M18.0478 17.1396C18.1613 17.1396 18.2533 17.0476 18.2533 16.9341C18.2533 16.8205 18.1613 16.7285 18.0478 16.7285C17.9343 16.7285 17.8422 16.8205 17.8422 16.9341C17.8422 17.0476 17.9343 17.1396 18.0478 17.1396Z" fill="#000080"/>
<path d="M18.9522 17.1396C19.0657 17.1396 19.1578 17.0476 19.1578 16.9341C19.1578 16.8205 19.0657 16.7285 18.9522 16.7285C18.8387 16.7285 18.7467 16.8205 18.7467 16.9341C18.7467 17.0476 18.8387 17.1396 18.9522 17.1396Z" fill="#000080"/>
<path d="M19.8258 16.9053C19.9394 16.9053 20.0314 16.8132 20.0314 16.6997C20.0314 16.5862 19.9394 16.4941 19.8258 16.4941C19.7123 16.4941 19.6203 16.5862 19.6203 16.6997C19.6203 16.8132 19.7123 16.9053 19.8258 16.9053Z" fill="#000080"/>
<path d="M20.609 16.4541C20.7225 16.4541 20.8146 16.362 20.8146 16.2485C20.8146 16.135 20.7225 16.043 20.609 16.043C20.4955 16.043 20.4035 16.135 20.4035 16.2485C20.4035 16.362 20.4955 16.4541 20.609 16.4541Z" fill="#000080"/>
<path d="M21.2483 15.8154C21.3618 15.8154 21.4538 15.7234 21.4538 15.6099C21.4538 15.4963 21.3618 15.4043 21.2483 15.4043C21.1348 15.4043 21.0427 15.4963 21.0427 15.6099C21.0427 15.7234 21.1348 15.8154 21.2483 15.8154Z" fill="#000080"/>
<path d="M21.6995 15.0322C21.813 15.0322 21.905 14.9402 21.905 14.8267C21.905 14.7131 21.813 14.6211 21.6995 14.6211C21.586 14.6211 21.4939 14.7131 21.4939 14.8267C21.4939 14.9402 21.586 15.0322 21.6995 15.0322Z" fill="#000080"/>
<path d="M21.9338 14.1592C22.0473 14.1592 22.1394 14.0671 22.1394 13.9536C22.1394 13.8401 22.0473 13.748 21.9338 13.748C21.8203 13.748 21.7283 13.8401 21.7283 13.9536C21.7283 14.0671 21.8203 14.1592 21.9338 14.1592Z" fill="#000080"/>
<path d="M21.9338 13.2549C22.0473 13.2549 22.1394 13.1628 22.1394 13.0493C22.1394 12.9358 22.0473 12.8438 21.9338 12.8438C21.8203 12.8438 21.7283 12.9358 21.7283 13.0493C21.7283 13.1628 21.8203 13.2549 21.9338 13.2549Z" fill="#000080"/>
<path d="M21.6995 12.3799C21.813 12.3799 21.905 12.2878 21.905 12.1743C21.905 12.0608 21.813 11.9688 21.6995 11.9688C21.586 11.9688 21.4939 12.0608 21.4939 12.1743C21.4939 12.2878 21.586 12.3799 21.6995 12.3799Z" fill="#000080"/>
<path d="M21.2483 11.5967C21.3618 11.5967 21.4538 11.5046 21.4538 11.3911C21.4538 11.2776 21.3618 11.1855 21.2483 11.1855C21.1348 11.1855 21.0427 11.2776 21.0427 11.3911C21.0427 11.5046 21.1348 11.5967 21.2483 11.5967Z" fill="#000080"/>
<path d="M20.609 10.958C20.7225 10.958 20.8146 10.866 20.8146 10.7524C20.8146 10.6389 20.7225 10.5469 20.609 10.5469C20.4955 10.5469 20.4035 10.6389 20.4035 10.7524C20.4035 10.866 20.4955 10.958 20.609 10.958Z" fill="#000080"/>
<path d="M19.8258 10.5068C19.9394 10.5068 20.0314 10.4148 20.0314 10.3013C20.0314 10.1877 19.9394 10.0957 19.8258 10.0957C19.7123 10.0957 19.6203 10.1877 19.6203 10.3013C19.6203 10.4148 19.7123 10.5068 19.8258 10.5068Z" fill="#000080"/>
<path d="M18.9522 10.2724C19.0657 10.2724 19.1578 10.1804 19.1578 10.0669C19.1578 9.95336 19.0657 9.86133 18.9522 9.86133C18.8387 9.86133 18.7467 9.95336 18.7467 10.0669C18.7467 10.1804 18.8387 10.2724 18.9522 10.2724Z" fill="#000080"/>
<path d="M18.5 14.4262C19.0109 14.4262 19.425 14.012 19.425 13.5012C19.425 12.9903 19.0109 12.5762 18.5 12.5762C17.9891 12.5762 17.575 12.9903 17.575 13.5012C17.575 14.012 17.9891 14.4262 18.5 14.4262Z" fill="#000080"/>
</g>
<defs>
<clipPath id="clip0_956_442">
<rect width="37" height="27" fill="white"/>
</clipPath>
</defs>
</svg>
