<svg width="37" height="33" viewBox="0 0 37 33" fill="none" xmlns="http://www.w3.org/2000/svg">
<g clip-path="url(#clip0_971_458)">
<path d="M37 22.7498C37 23.8401 36.5669 24.8858 35.7959 25.6568C35.0249 26.4278 33.9792 26.8609 32.8889 26.8609H4.11111C3.02078 26.8609 1.9751 26.4278 1.20412 25.6568C0.433134 24.8858 0 23.8401 0 22.7498V4.24978C0 3.15945 0.433134 2.11377 1.20412 1.34279C1.9751 0.571805 3.02078 0.138672 4.11111 0.138672H32.8889C33.9792 0.138672 35.0249 0.571805 35.7959 1.34279C36.5669 2.11377 37 3.15945 37 4.24978V22.7498Z" fill="#EEEEEE"/>
<path d="M18.5 20.6936C22.4734 20.6936 25.6944 17.4725 25.6944 13.4991C25.6944 9.52575 22.4734 6.30469 18.5 6.30469C14.5266 6.30469 11.3055 9.52575 11.3055 13.4991C11.3055 17.4725 14.5266 20.6936 18.5 20.6936Z" fill="#ED1B2F"/>
</g>
<rect x="14" y="29" width="4" height="4" fill="#0000FF"/>
<defs>
<clipPath id="clip0_971_458">
<rect width="37" height="27" fill="white"/>
</clipPath>
</defs>
</svg>
