<svg width="37" height="33" viewBox="0 0 37 33" fill="none" xmlns="http://www.w3.org/2000/svg">
<g clip-path="url(#clip0_971_471)">
<path d="M37 22.7498C37 23.8401 36.5669 24.8858 35.7959 25.6568C35.0249 26.4278 33.9792 26.8609 32.8889 26.8609H4.11111C3.02078 26.8609 1.9751 26.4278 1.20412 25.6568C0.433134 24.8858 0 23.8401 0 22.7498V4.24978C0 3.15945 0.433134 2.11377 1.20412 1.34279C1.9751 0.571805 3.02078 0.138672 4.11111 0.138672H32.8889C33.9792 0.138672 35.0249 0.571805 35.7959 1.34279C36.5669 2.11377 37 3.15945 37 4.24978V22.7498Z" fill="#EEEEEE"/>
<path d="M22.0366 8.44888C20.6968 7.51097 19.0393 7.14367 17.4288 7.42777C15.8182 7.71188 14.3865 8.62411 13.4485 9.96382C13.0055 10.6343 12.8418 11.4512 12.9921 12.2406C13.1424 13.0301 13.5948 13.7297 14.2531 14.1905C14.9114 14.6514 15.7236 14.8372 16.5167 14.7083C17.3099 14.5794 18.0215 14.146 18.5 13.5004C18.7323 13.1687 19.0276 12.886 19.3692 12.6685C19.7107 12.4509 20.0917 12.3028 20.4905 12.2325C20.8893 12.1622 21.298 12.1711 21.6934 12.2588C22.0887 12.3465 22.4629 12.5112 22.7946 12.7434C23.1263 12.9757 23.4089 13.2711 23.6265 13.6126C23.844 13.9541 23.9922 14.3352 24.0625 14.734C24.1328 15.1327 24.1238 15.5415 24.0362 15.9368C23.9485 16.3321 23.7838 16.7063 23.5515 17.038C24.0161 16.3746 24.3454 15.6262 24.5207 14.8354C24.696 14.0447 24.7138 13.2272 24.5731 12.4297C24.4325 11.6321 24.136 10.87 23.7008 10.187C23.2656 9.50393 22.7001 8.91333 22.0366 8.44888Z" fill="#C60C30"/>
<path d="M22.7941 12.7441C22.1243 12.275 21.2957 12.0912 20.4904 12.233C19.6851 12.3749 18.9692 12.8308 18.5 13.5005C18.0227 14.1495 17.3104 14.586 16.5154 14.7166C15.7205 14.8472 14.9059 14.6616 14.246 14.1995C13.5861 13.7374 13.1332 13.0354 12.9842 12.2437C12.8352 11.4519 13.0018 10.6333 13.4485 9.96289C12.9704 10.6256 12.6287 11.3767 12.4434 12.1726C12.2581 12.9684 12.2328 13.7932 12.3691 14.5989C12.5053 15.4047 12.8003 16.1753 13.2369 16.866C13.6736 17.5567 14.2431 18.1538 14.9125 18.6225C15.5819 19.0912 16.3378 19.4221 17.1362 19.5962C17.9346 19.7702 18.7596 19.7838 19.5634 19.6362C20.3671 19.4886 21.1334 19.1827 21.8179 18.7363C22.5024 18.29 23.0913 17.712 23.5505 17.0361C23.7828 16.7046 23.9476 16.3307 24.0353 15.9356C24.123 15.5404 24.132 15.1319 24.0618 14.7333C23.9915 14.3347 23.8434 13.9538 23.6259 13.6125C23.4084 13.2712 23.1257 12.9761 22.7941 12.7441Z" fill="#003478"/>
<path d="M25.0099 21.2822L26.9915 18.9204L27.7788 19.5812L25.7972 21.9431L25.0099 21.2822ZM27.6513 18.1341L29.6329 15.7733L30.4202 16.4342L28.4386 18.795L27.6513 18.1341ZM26.5845 22.606L28.5661 20.2452L29.3533 20.906L27.3718 23.2668L26.5845 22.606ZM29.2279 19.4548L31.2116 17.094L31.9988 17.7559L30.0152 20.1157L29.2279 19.4548ZM28.158 23.9277L30.1416 21.5669L30.9279 22.2278L28.9453 24.5886L28.158 23.9277ZM30.8004 20.7776L32.781 18.4137L33.5693 19.0745L31.5888 21.4384L30.8004 20.7776ZM30.8046 6.22218L31.5918 5.56132L33.5754 7.92418L32.7871 8.58505L30.8046 6.22218ZM28.1611 3.07102L28.9484 2.41016L30.9299 4.77302L30.1416 5.43285L28.1611 3.07102ZM26.5855 4.39479L27.3728 3.73393L31.9978 9.24488L31.2105 9.90574L26.5855 4.39479ZM25.011 5.71446L25.7993 5.0536L27.7798 7.41543L26.9925 8.07527L25.011 5.71446ZM27.6524 8.8646L28.4396 8.20374L30.4233 10.5645L29.637 11.2254L27.6524 8.8646ZM6.57778 16.4332L7.36506 15.7723L11.989 21.2843L11.2007 21.9451L6.57778 16.4332ZM5.00528 17.7549L5.79153 17.095L7.77412 19.4569L6.98581 20.1177L5.00528 17.7549ZM7.64359 20.906L8.43087 20.2452L10.4145 22.606L9.6272 23.2668L7.64359 20.906ZM3.42867 19.0756L4.21595 18.4147L8.84095 23.9257L8.05264 24.5865L3.42867 19.0756ZM3.42764 7.92213L8.05059 2.41118L8.83889 3.07102L4.21389 8.58299L3.42764 7.92213ZM5.0022 9.24488L9.6272 3.73291L10.4145 4.39377L5.78948 9.90471L5.0022 9.24488ZM6.57778 10.5656L11.2028 5.0536L11.9901 5.71446L7.36506 11.2264L6.57778 10.5656Z" fill="#292F33"/>
</g>
<rect x="14" y="29" width="4" height="4" fill="#0000FF"/>
<defs>
<clipPath id="clip0_971_471">
<rect width="37" height="27" fill="white"/>
</clipPath>
</defs>
</svg>
