<svg width="37" height="33" viewBox="0 0 37 33" fill="none" xmlns="http://www.w3.org/2000/svg">
<g clip-path="url(#clip0_971_470)">
<path d="M37 22.7498C37 23.8401 36.5669 24.8858 35.7959 25.6568C35.0249 26.4278 33.9792 26.8609 32.8889 26.8609H4.11111C3.02078 26.8609 1.9751 26.4278 1.20412 25.6568C0.433134 24.8858 0 23.8401 0 22.7498V4.24978C0 3.15945 0.433134 2.11377 1.20412 1.34279C1.9751 0.571805 3.02078 0.138672 4.11111 0.138672H32.8889C33.9792 0.138672 35.0249 0.571805 35.7959 1.34279C36.5669 2.11377 37 3.15945 37 4.24978V22.7498Z" fill="#006600"/>
<path d="M32.8889 0.138672H15.4167V26.8609H32.8889C33.9792 26.8609 35.0249 26.4278 35.7959 25.6568C36.5669 24.8858 37 23.8401 37 22.7498V4.24978C37 3.15945 36.5669 2.11377 35.7959 1.34279C35.0249 0.571805 33.9792 0.138672 32.8889 0.138672Z" fill="#D52B1E"/>
<path d="M15.4167 5.27734C13.236 5.27734 11.1447 6.14361 9.60269 7.68558C8.06073 9.22754 7.19446 11.3189 7.19446 13.4996C7.19446 15.6802 8.06073 17.7716 9.60269 19.3136C11.1447 20.8555 13.236 21.7218 15.4167 21.7218C17.5973 21.7218 19.6887 20.8555 21.2307 19.3136C22.7726 17.7716 23.6389 15.6802 23.6389 13.4996C23.6389 11.3189 22.7726 9.22754 21.2307 7.68558C19.6887 6.14361 17.5973 5.27734 15.4167 5.27734ZM9.13387 9.99895L10.7804 11.6455L8.25204 12.9096C8.33364 11.8873 8.6344 10.8946 9.13387 9.99895ZM8.25204 14.0885L12.7743 16.3568L9.9931 18.2109L10.0075 18.2325C8.99173 17.076 8.3761 15.6227 8.25204 14.0885ZM14.3889 20.6118C13.4468 20.4772 12.541 20.1557 11.7249 19.6662H14.3889V20.6118ZM14.3889 18.6385H11.2038L14.3889 16.5151V18.6385ZM14.3889 15.2797L13.765 15.6959L9.37129 13.4996L11.5461 12.4122L14.3889 15.254V15.2797ZM14.3889 13.8007L10.7475 10.1593L14.3889 10.7657V13.8007ZM14.3889 9.69782L9.83379 8.96501C10.9734 7.5628 12.6001 6.64226 14.3889 6.38734V9.69782ZM21.6995 9.99895C22.1991 10.8949 22.4999 11.888 22.5813 12.9106L20.053 11.6465L21.6995 9.99895ZM16.4445 6.38734C18.2326 6.64421 19.8587 7.56438 20.9996 8.96501L16.4445 9.69782V6.38734ZM16.4445 10.7657L20.0859 10.1583L16.4445 13.8007V10.7657ZM16.4445 15.254L19.2863 12.4122L21.4621 13.4996L17.0693 15.6959L16.4445 15.2797V15.254ZM16.4445 20.6118V19.6662H19.1085C18.2923 20.1557 17.3866 20.4772 16.4445 20.6118ZM16.4445 18.6385V16.5151L19.6295 18.6385H16.4445ZM20.8269 18.2325L20.8413 18.2109L18.0601 16.3568L22.5823 14.0885C22.4568 15.6224 21.8414 17.0752 20.8269 18.2325Z" fill="#FFCC4D"/>
<path d="M11.3055 8.36133V15.5558C11.3055 16.6461 11.7387 17.6918 12.5097 18.4628C13.2806 19.2337 14.3263 19.6669 15.4167 19.6669C16.507 19.6669 17.5527 19.2337 18.3236 18.4628C19.0946 17.6918 19.5278 16.6461 19.5278 15.5558V8.36133H11.3055Z" fill="#D52B1E"/>
<path d="M12.3333 9.38867V15.5553C12.3333 16.3731 12.6582 17.1573 13.2364 17.7356C13.8146 18.3138 14.5989 18.6387 15.4166 18.6387C16.2344 18.6387 17.0187 18.3138 17.5969 17.7356C18.1751 17.1573 18.5 16.3731 18.5 15.5553V9.38867H12.3333Z" fill="white"/>
<path d="M13.3611 12.4727H17.4722V14.5282H13.3611V12.4727Z" fill="#829ACD"/>
<path d="M14.3889 11.4453H16.4444V15.5564H14.3889V11.4453Z" fill="#829ACD"/>
<path d="M12.3333 12.472H13.3611V14.5276H12.3333V12.472ZM14.3889 12.472H16.4444V14.5276H14.3889V12.472ZM17.4722 12.472H18.5V14.5276H17.4722V12.472ZM14.3889 15.5553H16.4444V17.6109H14.3889V15.5553ZM14.3889 9.38867H16.4444V11.4442H14.3889V9.38867Z" fill="#003399"/>
</g>
<rect x="14" y="29" width="4" height="4" fill="#0000FF"/>
<defs>
<clipPath id="clip0_971_470">
<rect width="37" height="27" fill="white"/>
</clipPath>
</defs>
</svg>
