<svg width="37" height="33" viewBox="0 0 37 33" fill="none" xmlns="http://www.w3.org/2000/svg">
<g clip-path="url(#clip0_971_467)">
<path d="M37 22.7498C37 23.8401 36.5669 24.8858 35.7959 25.6568C35.0249 26.4278 33.9792 26.8609 32.8889 26.8609H4.11111C3.02078 26.8609 1.9751 26.4278 1.20412 25.6568C0.433134 24.8858 0 23.8401 0 22.7498V4.24978C0 3.15945 0.433134 2.11377 1.20412 1.34279C1.9751 0.571805 3.02078 0.138672 4.11111 0.138672H32.8889C33.9792 0.138672 35.0249 0.571805 35.7959 1.34279C36.5669 2.11377 37 3.15945 37 4.24978V22.7498Z" fill="#C60A1D"/>
<path d="M0 7.33398H37V19.6673H0V7.33398Z" fill="#FFC400"/>
<path d="M9.25 12.4727V15.556C9.25 16.3737 9.57485 17.158 10.1531 17.7362C10.7313 18.3145 11.5156 18.6393 12.3333 18.6393C13.1511 18.6393 13.9353 18.3145 14.5136 17.7362C15.0918 17.158 15.4167 16.3737 15.4167 15.556V12.4727H9.25Z" fill="#EA596E"/>
<path d="M12.3333 11.4453H15.4167V14.5286H12.3333V11.4453Z" fill="#F4A2B2"/>
<path d="M9.25 11.4453H12.3333V14.5286H9.25V11.4453Z" fill="#DD2E44"/>
<path d="M12.3333 11.4447C14.0362 11.4447 15.4167 10.7544 15.4167 9.90299C15.4167 9.05156 14.0362 8.36133 12.3333 8.36133C10.6305 8.36133 9.25 9.05156 9.25 9.90299C9.25 10.7544 10.6305 11.4447 12.3333 11.4447Z" fill="#EA596E"/>
<path d="M12.3333 9.90299C14.0362 9.90299 15.4167 9.55788 15.4167 9.13216C15.4167 8.70644 14.0362 8.36133 12.3333 8.36133C10.6305 8.36133 9.25 8.70644 9.25 9.13216C9.25 9.55788 10.6305 9.90299 12.3333 9.90299Z" fill="#FFAC33"/>
<path d="M7.19446 11.4453H8.22224V18.6398H7.19446V11.4453ZM16.4445 11.4453H17.4722V18.6398H16.4445V11.4453Z" fill="#99AAB5"/>
<path d="M6.16669 17.6105H9.25002V18.6382H6.16669V17.6105ZM15.4167 17.6105H18.5V18.6382H15.4167V17.6105ZM7.19446 10.416H8.22224V11.4438H7.19446V10.416ZM16.4445 10.416H17.4722V11.4438H16.4445V10.416Z" fill="#66757F"/>
</g>
<rect x="14" y="29" width="4" height="4" fill="#0000FF"/>
<defs>
<clipPath id="clip0_971_467">
<rect width="37" height="27" fill="white"/>
</clipPath>
</defs>
</svg>
