<svg width="89" height="24" viewBox="0 0 89 24" fill="none" xmlns="http://www.w3.org/2000/svg">
<g clip-path="url(#clip0_1_1796)">
<path d="M51.6201 6.601L56.6503 4.72911L51.6201 2.80374V0.183105L60.2356 3.65946V5.79876L51.6201 9.27512V6.601Z" fill="#030303"/>
<path d="M4.04725 23.1804C2.22784 23.1804 0.729492 22.2712 0.729492 20.2389V20.1319C0.729492 17.6717 2.86998 16.816 5.49209 16.816H6.72287V16.3347C6.72287 15.3185 6.29477 14.7302 5.22452 14.7302C4.2613 14.7302 3.77969 15.265 3.72618 16.0138H1.05057C1.26462 13.7675 3.03052 12.6978 5.38506 12.6978C7.79311 12.6978 9.55902 13.714 9.55902 16.2277V22.9665H6.82989V21.7899C6.29477 22.5386 5.38506 23.1804 4.04725 23.1804ZM6.72287 19.6506V18.6879H5.59911C4.20779 18.6879 3.51213 19.0623 3.51213 19.9715V20.0784C3.51213 20.7737 3.94023 21.255 4.90345 21.255C5.86667 21.2016 6.72287 20.6667 6.72287 19.6506ZM15.927 23.1804C13.1443 23.1804 11.1109 21.469 11.1109 18.0461V17.8856C11.1109 14.4628 13.2514 12.6444 15.927 12.6444C18.228 12.6444 20.1009 13.821 20.315 16.4416H17.6394C17.4788 15.4789 16.9437 14.8371 15.9805 14.8371C14.8032 14.8371 13.947 15.7998 13.947 17.7787V18.0996C13.947 20.1319 14.6962 21.0411 15.9805 21.0411C16.9437 21.0411 17.6394 20.3458 17.7999 19.2227H20.3685C20.208 21.5759 18.6561 23.1804 15.927 23.1804ZM26.4154 23.1804C23.6328 23.1804 21.5993 21.469 21.5993 18.0461V17.8856C21.5993 14.4628 23.7398 12.6444 26.4154 12.6444C28.7164 12.6444 30.5893 13.821 30.8034 16.4416H28.1278C27.9672 15.4789 27.4321 14.8371 26.4689 14.8371C25.2916 14.8371 24.4354 15.7998 24.4354 17.7787V18.0996C24.4354 20.1319 25.1846 21.0411 26.4689 21.0411C27.4321 21.0411 28.1278 20.3458 28.2883 19.2227H30.8569C30.6964 21.5759 29.1445 23.1804 26.4154 23.1804ZM36.9573 23.1804C34.0676 23.1804 32.0877 21.469 32.0877 18.0996V17.8856C32.0877 14.5163 34.1747 12.6444 36.9038 12.6444C39.4189 12.6444 41.5059 14.0349 41.5059 17.4043V18.6344H34.9238C35.0309 20.4528 35.8336 21.1481 37.0108 21.1481C38.0811 21.1481 38.6697 20.5598 38.8838 19.8645H41.5059C41.1848 21.7364 39.5794 23.1804 36.9573 23.1804ZM34.9774 16.7625H38.7232C38.6697 15.265 37.974 14.6232 36.8503 14.6232C35.9941 14.6767 35.1914 15.158 34.9774 16.7625ZM43.2183 12.9118H46.0544V14.4093C46.536 13.4466 47.5527 12.6978 49.1046 12.6978C50.924 12.6978 52.1548 13.821 52.1548 16.2277V22.9665H49.3186V16.6555C49.3186 15.4789 48.837 14.9441 47.8203 14.9441C46.8571 14.9441 46.0544 15.5324 46.0544 16.816V22.9665H43.2183V12.9118ZM57.3455 9.86328V12.9118H59.2719V14.9976H57.3455V19.7575C57.3455 20.5063 57.6666 20.8807 58.3622 20.8807C58.7903 20.8807 59.0579 20.8272 59.3254 20.7202V22.913C59.0044 23.02 58.4157 23.1269 57.7201 23.1269C55.5261 23.1269 54.5093 22.1108 54.5093 20.0784V14.9976H53.3321V12.9118H54.5093V11.0399L57.3455 9.86328ZM69.8674 22.9665H67.0847V21.469C66.6031 22.4316 65.6399 23.1804 64.1416 23.1804C62.3221 23.1804 60.9843 22.0573 60.9843 19.704V12.9118H63.8205V19.3297C63.8205 20.5063 64.3021 21.0411 65.2653 21.0411C66.2285 21.0411 67.0312 20.3993 67.0312 19.1692V12.9118H69.8674V22.9665ZM71.9544 12.9118H74.7905V14.7837C75.3791 13.4466 76.3424 12.8048 77.8407 12.8048V15.5859C75.9143 15.5859 74.7905 16.1742 74.7905 17.8322V23.02H71.9544V12.9118ZM83.5665 23.1804C80.6768 23.1804 78.6969 21.469 78.6969 18.0996V17.8856C78.6969 14.5163 80.7839 12.6444 83.513 12.6444C86.0281 12.6444 88.1151 14.0349 88.1151 17.4043V18.6344H81.5866C81.6936 20.4528 82.4963 21.1481 83.6735 21.1481C84.7438 21.1481 85.3324 20.5598 85.5465 19.8645H88.1686C87.7405 21.7364 86.1886 23.1804 83.5665 23.1804ZM81.533 16.7625H85.3324C85.2789 15.265 84.5833 14.6232 83.4595 14.6232C82.6033 14.6767 81.8006 15.158 81.533 16.7625Z" fill="#030303"/>
</g>
<defs>
<clipPath id="clip0_1_1796">
<rect width="87.332" height="22.9974" fill="white" transform="translate(0.729492 0.183105)"/>
</clipPath>
</defs>
</svg>
