<svg width="116" height="23" viewBox="0 0 116 23" fill="none" xmlns="http://www.w3.org/2000/svg">
<g clip-path="url(#clip0_1_1806)">
<path d="M13.8767 4.62988L7.21275 8.87596L13.8767 13.1221L7.21275 17.3681L0.548828 13.0991L7.21275 8.85301L0.548828 4.62988L7.21275 0.383789L13.8767 4.62988ZM7.17829 18.7338L13.8422 14.4877L20.5061 18.7338L13.8422 22.9799L7.17829 18.7338ZM13.8767 13.0991L20.5406 8.85301L13.8767 4.62988L20.5061 0.383789L27.1701 4.62988L20.5061 8.87596L27.1701 13.1221L20.5061 17.3681L13.8767 13.0991Z" fill="#030303"/>
<path d="M32.4004 4.63099H37.789C41.2243 4.63099 44.0623 6.61632 44.0623 11.1493V12.1018C44.0623 16.6692 41.4082 18.7234 37.8924 18.7234H32.4004V4.63099ZM35.4106 7.19011V16.1528H37.72C39.6733 16.1528 40.9831 14.879 40.9831 12.0444V11.2985C40.9831 8.46394 39.6043 7.19011 37.6166 7.19011H35.4106ZM45.6593 7.32783H48.0721L48.4627 9.97876C48.9223 8.17704 50.0943 7.21307 52.2198 7.21307H52.9666V10.2542H51.7258C49.2785 10.2542 48.681 11.1034 48.681 13.5133V18.7578H45.7053V7.32783H45.6593ZM53.5641 13.2723V12.951C53.5641 9.12954 56.0114 7.04093 59.3433 7.04093C62.7442 7.04093 65.1226 9.12954 65.1226 12.951V13.2723C65.1226 17.025 62.8132 19.0447 59.3433 19.0447C55.6552 19.0103 53.5641 17.0364 53.5641 13.2723ZM62.0778 13.2379V12.951C62.0778 10.828 61.0093 9.55415 59.3089 9.55415C57.6429 9.55415 56.5399 10.7247 56.5399 12.951V13.2379C56.5399 15.2921 57.6084 16.4627 59.3089 16.4627C61.0093 16.4282 62.0778 15.2921 62.0778 13.2379ZM66.6851 7.32783H69.1669L69.4541 9.4853C70.0516 8.03933 71.3269 7.04093 73.2112 7.04093C76.118 7.04093 78.0368 9.12954 78.0368 12.9969V13.3183C78.0368 17.0709 75.9112 19.0562 73.2112 19.0562C71.4073 19.0562 70.1665 18.2414 69.5575 16.9332V22.7055H66.6507L66.6851 7.32783ZM75.015 13.2379V12.9855C75.015 10.7132 73.8431 9.58858 72.2805 9.58858C70.6146 9.58858 69.5116 10.8624 69.5116 12.9855V13.2035C69.5116 15.2233 70.5801 16.4971 72.2461 16.4971C73.958 16.4627 75.015 15.3724 75.015 13.2379ZM82.4373 16.6463L82.1845 18.7349H79.6338V3.50635H82.5407V9.34759C83.1841 7.85572 84.4594 7.04093 86.2633 7.04093C88.9978 7.07536 91.02 8.95741 91.02 12.7445V13.1002C91.02 16.8873 89.1012 19.0562 86.1944 19.0562C84.2756 19.0103 83.0347 18.1267 82.4373 16.6463ZM87.9637 13.1002V12.8133C87.9637 10.7247 86.8263 9.55415 85.2292 9.55415C83.5977 9.55415 82.4603 10.8624 82.4603 12.8477V13.1002C82.4603 15.2233 83.5633 16.4627 85.1948 16.4627C86.9412 16.4627 87.9637 15.3724 87.9637 13.1002ZM92.2953 13.2723V12.951C92.2953 9.12954 94.7426 7.04093 98.0745 7.04093C101.475 7.04093 103.854 9.12954 103.854 12.951V13.2723C103.854 17.025 101.51 19.0447 98.0745 19.0447C94.3864 19.0103 92.2953 17.0364 92.2953 13.2723ZM100.832 13.2379V12.951C100.832 10.828 99.7635 9.55415 98.063 9.55415C96.3971 9.55415 95.2941 10.7247 95.2941 12.951V13.2379C95.2941 15.2921 96.3626 16.4627 98.063 16.4627C99.775 16.4282 100.832 15.2921 100.832 13.2379ZM107.749 12.8133L103.739 7.32783H107.174L109.484 10.7591L111.827 7.32783H115.228L111.161 12.7789L115.447 18.7349H112.08L109.461 14.9478L106.91 18.7349H103.394L107.749 12.8133Z" fill="#030303"/>
</g>
<defs>
<clipPath id="clip0_1_1806">
<rect width="114.895" height="22.5961" fill="white" transform="translate(0.548828 0.383789)"/>
</clipPath>
</defs>
</svg>
