<svg width="92" height="24" viewBox="0 0 92 24" fill="none" xmlns="http://www.w3.org/2000/svg">
<g clip-path="url(#clip0_1_1780)">
<path d="M52.208 7.79949C52.208 5.15952 52.2537 2.70162 52.3907 0.425781L45.4021 1.74577V2.383L46.0872 2.47403C46.5897 2.51955 46.9094 2.70162 47.0921 2.97472C47.2748 3.29334 47.4119 3.7485 47.5032 4.43125C47.5946 5.75124 47.6859 8.75535 47.6403 13.4891C47.6403 18.1773 47.5946 21.1359 47.5032 22.2738C50.0155 22.82 51.9796 23.0476 53.4413 23.0476C56.182 23.0476 58.3288 22.2738 59.8819 20.6807C61.4349 19.1332 62.2571 16.9484 62.2571 14.2629C62.2571 12.1236 61.6633 10.3484 60.4757 8.93741C59.288 7.52639 57.7807 6.84364 55.9993 6.84364C54.8116 6.84364 53.5784 7.16226 52.208 7.79949ZM52.3451 21.8186C52.2537 20.3621 52.1623 15.9925 52.1623 8.84638C52.5734 8.70983 53.1216 8.61879 53.8067 8.61879C54.903 8.61879 55.7709 9.165 56.4104 10.3029C57.0498 11.4408 57.3696 12.8063 57.3696 14.536C57.3696 16.6753 57.0042 18.4049 56.2733 19.8614C55.5425 21.2724 54.6289 22.0007 53.487 22.0007C53.1216 21.9097 52.7562 21.8642 52.3451 21.8186ZM19.1831 0.880949H0.912109V1.79128L1.87134 1.88232C2.60218 2.01887 3.10463 2.29197 3.42438 2.70162C3.74412 3.15679 3.92683 3.88505 3.97251 4.88642C4.33793 9.80223 4.33793 14.3994 3.97251 18.6325C3.88115 19.6338 3.69844 20.3621 3.42438 20.8173C3.10463 21.2724 2.60218 21.5455 1.87134 21.6366L0.912109 21.7731V22.6835H12.6969V21.7731L11.4636 21.6821C10.7328 21.5911 10.2303 21.2724 9.91059 20.8628C9.59085 20.4076 9.40814 19.6794 9.36246 18.678C9.22543 16.8573 9.13407 14.7636 9.13407 12.4422L11.6007 12.4877C12.9253 12.5332 13.8389 13.5346 14.2956 15.5373H15.2092V8.11811H14.2956C13.8389 10.0753 12.971 11.0767 11.6007 11.1222L9.13407 11.1677C9.13407 7.07123 9.22543 4.15815 9.36246 2.383H12.971C15.5289 2.383 17.2647 4.0216 18.2696 7.29881L19.3658 6.98019L19.1831 0.880949ZM17.0363 14.9001C17.0363 17.267 17.7215 19.2242 19.0461 20.7718C20.3708 22.3193 22.3349 23.0476 24.8015 23.0476C27.2681 23.0476 29.2779 22.2738 30.7396 20.6807C32.2012 19.1332 32.8864 17.1759 32.8864 14.8091C32.8864 12.4422 32.2012 10.485 30.8766 8.93741C29.5519 7.38984 27.5878 6.66157 25.1212 6.66157C22.6546 6.66157 20.6448 7.43536 19.1831 9.02844C17.7215 10.576 17.0363 12.5332 17.0363 14.9001ZM27.2224 9.7112C27.7705 11.0312 27.9989 12.7608 27.9989 14.8546C27.9989 19.6794 26.994 22.0462 25.0299 22.0462C24.025 22.0462 23.2484 21.3635 22.7003 19.998C22.1522 18.6325 21.9238 16.9028 21.9238 14.8546C21.9238 10.0753 22.9287 7.70846 24.8928 7.70846C25.8977 7.66294 26.6743 8.34569 27.2224 9.7112ZM65.8199 20.7718C67.3273 22.2738 69.2458 23.0476 71.5296 23.0476C72.9456 23.0476 74.1789 22.7745 75.2752 22.1828C76.3715 21.6366 77.2393 20.9538 77.8331 20.1345L77.3764 19.5883C76.3715 20.3621 75.2295 20.7262 73.9049 20.7262C72.0778 20.7262 70.6618 20.1345 69.7025 18.9056C68.6976 17.6766 68.2409 16.1291 68.3322 14.1263H78.1072C78.1072 11.9415 77.5591 10.1664 76.4171 8.75534C75.2752 7.38984 73.6765 6.70709 71.621 6.70709C69.063 6.70709 67.0989 7.52639 65.6829 9.11948C64.2669 10.7126 63.5817 12.6698 63.5817 14.9911C63.5817 17.358 64.3126 19.2697 65.8199 20.7718ZM69.2001 9.34706C69.7025 8.25466 70.342 7.70846 71.2099 7.70846C72.5802 7.70846 73.2654 9.4381 73.2654 12.9429L68.4236 13.0339C68.4692 11.6684 68.6976 10.4395 69.2001 9.34706ZM90.3945 7.52639C89.1612 6.98019 87.6081 6.66157 85.7354 6.66157C83.8169 6.66157 82.3095 7.16226 81.1676 8.11811C80.0257 9.07396 79.4319 10.2574 79.4319 11.6684C79.4319 12.8974 79.7973 13.8532 80.4824 14.536C81.1676 15.2187 82.2639 15.8104 83.6799 16.3111C84.9588 16.7663 85.8724 17.2215 86.3292 17.6311C86.7859 18.0863 87.06 18.587 87.06 19.2697C87.06 19.9069 86.8316 20.4987 86.3292 20.9538C85.8724 21.4545 85.2329 21.6821 84.4107 21.6821C82.4009 21.6821 80.8935 20.2256 79.843 17.3125L79.0664 17.5401L79.2491 22.0917C80.8935 22.729 82.7206 23.0476 84.7305 23.0476C86.8316 23.0476 88.4303 22.5924 89.618 21.6366C90.8056 20.7262 91.3994 19.4063 91.3994 17.7677C91.3994 16.6753 91.1253 15.7649 90.5315 15.0822C89.9377 14.3994 88.9785 13.8077 87.6081 13.2615C86.1008 12.7153 85.0502 12.2146 84.5021 11.7594C83.9539 11.3043 83.6799 10.7581 83.6799 10.0753C83.6799 9.39258 83.8626 8.84638 84.2737 8.39121C84.6848 7.93604 85.1872 7.75398 85.8267 7.75398C87.6538 7.75398 88.9785 9.07396 89.8007 11.6684L90.5772 11.4408L90.3945 7.52639ZM46.4526 7.11674C45.8132 6.79812 45.128 6.66157 44.3515 6.66157C43.575 6.66157 42.7984 6.98019 41.9306 7.61743C41.0627 8.25466 40.4232 9.11948 39.9208 10.3029L39.9664 6.66157L33.0234 8.02708V8.66431L33.7086 8.70983C34.5765 8.80086 35.0789 9.48361 35.1703 10.7126C35.4444 13.5346 35.4444 16.5387 35.1703 19.7249C35.0789 20.9538 34.5765 21.5911 33.7086 21.7276L33.0234 21.8186V22.6835H42.7071V21.8186L41.4738 21.7276C40.6059 21.6366 40.1035 20.9538 40.0121 19.7249C39.738 17.0849 39.6924 14.2629 39.9208 11.3498C40.1948 10.8946 40.7886 10.6215 41.7022 10.5305C42.6157 10.4395 43.6663 10.7126 44.7626 11.3498L46.4526 7.11674Z" fill="#030303"/>
</g>
<defs>
<clipPath id="clip0_1_1780">
<rect width="90.4873" height="22.6218" fill="white" transform="translate(0.912109 0.425781)"/>
</clipPath>
</defs>
</svg>
