<svg width="89" height="28" viewBox="0 0 89 28" fill="none" xmlns="http://www.w3.org/2000/svg">
<path d="M11.8364 9.76399V12.687H18.8904C18.7031 14.3039 18.1413 15.5478 17.2674 16.3562C16.2686 17.3513 14.6455 18.4707 11.8364 18.4707C7.52912 18.4707 4.15819 14.988 4.15819 10.6969C4.15819 6.40567 7.4667 2.92298 11.8364 2.92298C14.1461 2.92298 15.894 3.85584 17.1425 5.03747L19.2025 2.98517C17.4546 1.30601 15.0825 0 11.8364 0C5.90608 0 0.912109 4.78871 0.912109 10.6969C0.912109 16.605 5.90608 21.3937 11.8364 21.3937C15.0201 21.3937 17.4546 20.3365 19.3274 18.4085C21.2625 16.4806 21.8868 13.7442 21.8868 11.5675C21.8868 10.8834 21.8244 10.2615 21.7619 9.76399H11.8364Z" fill="#030303"/>
<path d="M30.6244 7.33789C26.8165 7.33789 23.6328 10.2609 23.6328 14.2411C23.6328 18.2213 26.754 21.1443 30.6244 21.1443C34.4947 21.1443 37.6159 18.2835 37.6159 14.3033C37.6159 10.2609 34.4947 7.33789 30.6244 7.33789ZM30.6244 18.4701C28.5019 18.4701 26.6916 16.7287 26.6916 14.3033C26.6916 11.8156 28.5019 10.1365 30.6244 10.1365C32.7468 10.1365 34.5571 11.8156 34.5571 14.3033C34.5571 16.7287 32.7468 18.4701 30.6244 18.4701Z" fill="#030303"/>
<path d="M64.7708 8.89267H64.6459C63.9592 8.08418 62.6483 7.33789 60.9629 7.33789C57.4671 7.33789 54.4707 10.3231 54.4707 14.2411C54.4707 18.0969 57.4671 21.1443 60.9629 21.1443C62.6483 21.1443 63.9592 20.398 64.6459 19.5895H64.7708V20.5846C64.7708 23.1966 63.335 24.627 61.0877 24.627C59.215 24.627 58.0913 23.321 57.5919 22.1393L54.9701 23.2588C55.7192 25.0623 57.7792 27.3634 61.1501 27.3634C64.7083 27.3634 67.7671 25.2489 67.7671 20.1492V7.71104H64.8956V8.89267H64.7708ZM61.275 18.4701C59.1525 18.4701 57.5919 16.6665 57.5919 14.3033C57.5919 11.8778 59.215 10.1365 61.275 10.1365C63.335 10.1365 64.958 11.94 64.958 14.3655C65.0205 16.7287 63.3974 18.4701 61.275 18.4701Z" fill="#030303"/>
<path d="M46.1712 7.33789C42.3633 7.33789 39.1797 10.2609 39.1797 14.2411C39.1797 18.2213 42.3009 21.1443 46.1712 21.1443C50.0416 21.1443 53.1628 18.2835 53.1628 14.3033C53.1628 10.2609 50.0416 7.33789 46.1712 7.33789ZM46.1712 18.4701C44.0488 18.4701 42.2385 16.7287 42.2385 14.3033C42.2385 11.8156 44.0488 10.1365 46.1712 10.1365C48.2937 10.1365 50.104 11.8156 50.104 14.3033C50.104 16.7287 48.2937 18.4701 46.1712 18.4701Z" fill="#030303"/>
<path d="M70.0801 0.311035H73.0765V21.2072H70.0801V0.311035Z" fill="#030303"/>
<path d="M82.312 18.4701C80.7514 18.4701 79.6902 17.786 78.9411 16.3556L88.2424 12.5619L87.9302 11.7535C87.3684 10.1987 85.5581 7.33789 81.9999 7.33789C78.4417 7.33789 75.4453 10.1365 75.4453 14.2411C75.4453 18.0969 78.3793 21.1443 82.312 21.1443C85.4957 21.1443 87.306 19.2164 88.1175 18.0969L85.7454 16.5422C84.9339 17.7238 83.8726 18.4701 82.312 18.4701ZM82.1248 9.94991C83.3732 9.94991 84.4345 10.5718 84.7466 11.4425L78.5041 14.0545C78.4417 11.1937 80.5641 9.94991 82.1248 9.94991Z" fill="#030303"/>
</svg>
