<svg width="62" height="25" viewBox="0 0 62 25" fill="none" xmlns="http://www.w3.org/2000/svg">
<g clip-path="url(#clip0_205_800)">
<path d="M58.769 9.82177C57.3463 8.38059 55.4794 7.58675 53.5111 7.58675C52.0718 7.58675 50.6256 8.13016 49.8306 8.66662C48.185 9.77758 46.8324 10.9835 44.3975 14.1719V16.4638C46.4634 13.7361 48.4183 11.5866 49.9025 10.4045C50.8779 9.61063 52.262 9.11878 53.5111 9.11878C56.7354 9.11878 59.4607 11.8796 59.4607 15.1491V16.5284C59.4607 18.1439 58.8349 19.6616 57.6943 20.8041C56.5654 21.9359 55.0784 22.5591 53.5111 22.5591C50.8614 22.5591 48.529 20.7157 47.8951 18.1984L46.83 19.507C47.6068 22.1446 50.4124 24.0907 53.5111 24.0907C55.4794 24.0907 57.3463 23.2957 58.769 21.8574C60.1898 20.4162 60.9719 18.5241 60.9719 16.5284V15.1491C60.9719 13.1542 60.1898 11.2613 58.769 9.82177ZM26.3967 9.11878C27.4234 9.11878 28.3112 9.34219 29.1127 9.80213C29.4893 9.32501 29.8697 8.9375 30.1531 8.65066C29.3052 7.99431 27.8695 7.58675 26.3967 7.58675C24.2976 7.58675 22.3916 8.35399 21.0306 9.74811C19.6797 11.1296 18.9335 13.0474 18.9335 15.1491V24.0907H20.4447V15.1491C20.4447 11.5985 22.8922 9.11878 26.3967 9.11878ZM40.7578 24.0907V15.1491C40.7578 12.4001 38.6329 10.2461 35.9201 10.2461C34.6568 10.2461 33.4509 10.7646 32.5214 11.7053C31.594 12.6452 31.0829 13.8695 31.0829 15.1491V16.5284C31.0829 19.1853 33.299 21.4318 35.9201 21.4318C36.6388 21.4318 37.6171 21.2526 38.2158 20.7546V19.1358C37.6276 19.615 36.7736 19.9002 35.9201 19.9002C34.0557 19.9002 32.5941 18.4181 32.5941 16.5284V15.1491C32.5941 13.259 34.0557 11.7793 35.9201 11.7793C37.7862 11.7793 39.2466 13.259 39.2466 15.1491V24.0907H40.7578ZM0.274658 14.2615V14.7562C0.274658 17.4119 1.26867 19.89 3.0746 21.733C4.87609 23.5719 7.29087 24.583 9.874 24.583C11.9508 24.583 13.7899 24.1067 15.3423 23.1709C16.6221 22.3975 17.1894 21.6159 17.2382 21.5443V13.2991H9.507V14.8315H15.727V21.0684L15.721 21.0738C14.9926 21.8132 13.2638 23.0502 9.874 23.0502C7.66513 23.0502 5.62018 22.197 4.11221 20.6441C2.61191 19.0986 1.78586 17.0072 1.78586 14.7562V14.2615C1.78586 12.1362 2.73183 10.0157 4.3799 8.44688C6.06269 6.84816 8.255 5.96676 10.5543 5.96676C12.6986 5.96676 14.1924 6.29657 15.3923 7.03312V5.3141C14.1432 4.7756 12.6501 4.53376 10.5543 4.53376C4.98268 4.53376 0.274658 8.98947 0.274658 14.2615ZM26.3967 11.7793C26.97 11.7793 27.4557 11.8755 27.8425 12.0662C28.0306 11.5907 28.2236 11.1987 28.505 10.7228C28.094 10.4249 27.1158 10.2461 26.3967 10.2461C23.6391 10.2461 21.5591 12.3539 21.5591 15.1491V24.0907H23.0703V15.1491C23.0703 13.1641 24.4386 11.7793 26.3967 11.7793ZM15.3923 9.98095V8.16986C14.0249 7.42635 12.5326 7.0949 10.5543 7.0949C8.5356 7.0949 6.62187 7.84577 5.16355 9.20593C3.70403 10.571 2.89937 12.3665 2.89937 14.2615V14.7562C2.89937 18.7086 6.02756 21.9237 9.874 21.9237C13.0026 21.9237 14.2869 20.8859 14.6139 20.5578V15.9593H9.507V17.4905H13.2V19.7946L13.1867 19.7991C12.7115 19.991 11.7247 20.3912 9.874 20.3912C8.40681 20.3912 7.03409 19.813 6.00778 18.7602C4.97662 17.7036 4.41058 16.2809 4.41058 14.7562V14.2615C4.41058 11.2073 7.22425 8.62733 10.5543 8.62733C12.8581 8.62733 14.2203 9.00543 15.3923 9.98095ZM51.0665 12.8666C51.7484 12.1771 52.6411 11.7793 53.5111 11.7793C55.3756 11.7793 56.8379 13.259 56.8379 15.1491V16.5284C56.8379 18.4181 55.3756 19.9002 53.5111 19.9002C52.6084 19.9002 51.7363 19.3973 51.0532 18.4885C50.4475 17.6848 50.0551 16.5976 49.9945 15.6204L48.7708 17.1349C49.011 18.2933 49.6086 19.4034 50.4528 20.1838C51.3241 20.9874 52.4101 21.4318 53.5111 21.4318C56.1795 21.4318 58.3483 19.232 58.3483 16.5284V15.1491C58.3483 13.8695 57.8372 12.6452 56.9098 11.7053C55.9808 10.7646 54.7744 10.2461 53.5111 10.2461C52.7125 10.2461 51.4424 10.5362 49.9287 11.9156L49.9235 11.9209C49.5185 12.3318 48.5673 13.2958 47.9888 13.9833C47.0157 15.059 45.6018 16.6831 44.3975 18.308V20.6998C45.7343 18.9591 46.5038 17.9839 47.7602 16.5133C48.8855 15.1826 50.2784 13.5655 51.0665 12.8666ZM28.4594 16.5284C28.4594 18.5241 29.2423 20.4162 30.663 21.8574C32.085 23.2957 33.9523 24.0907 35.9201 24.0907C36.7539 24.0907 37.6102 23.9103 38.2158 23.6079V22.0775C37.5085 22.3779 36.6537 22.5591 35.9201 22.5591C32.6959 22.5591 29.9698 19.7979 29.9698 16.5284V15.1491C29.9698 11.8796 32.6959 9.11878 35.9201 9.11878C37.5234 9.11878 39.0221 9.74075 40.14 10.8738C41.2568 12.0056 41.8705 13.5241 41.8705 15.1491V24.0907H43.3817V14.8544C43.2876 12.903 42.4656 11.0772 41.0674 9.7121C39.6673 8.34172 37.8371 7.58675 35.9201 7.58675C33.9523 7.58675 32.085 8.38059 30.663 9.82177C29.2423 11.2613 28.4594 13.1542 28.4594 15.1491V16.5284ZM45.9535 10.5988C46.4162 10.0358 46.895 9.46373 47.4627 8.98088V0.889898H45.9535V10.5988ZM48.5762 8.35399V0.889898H50.0866V7.30359C49.6764 7.51351 49.1031 7.91288 48.5762 8.35399Z" fill="#030303"/>
</g>
<defs>
<clipPath id="clip0_205_800">
<rect width="61" height="24" fill="white" transform="translate(0.124023 0.736328)"/>
</clipPath>
</defs>
</svg>
