<svg width="97" height="25" viewBox="0 0 97 25" fill="none" xmlns="http://www.w3.org/2000/svg">
<g clip-path="url(#clip0_205_697)">
<path d="M39.5881 17.324C39.5881 17.1195 39.4597 16.9662 39.1772 16.9151V16.7873C39.3313 16.7873 39.8191 16.8128 39.9732 16.8128C40.1016 16.8128 40.5637 16.7873 40.7178 16.7873V16.9151C40.461 16.9662 40.3326 17.1195 40.3326 17.324V19.8799C40.3326 20.6978 40.7691 21.1579 41.7191 21.1579C42.515 21.1579 43.1569 20.8001 43.1569 19.9566V17.2985C43.1569 17.1195 43.0285 16.9662 42.7461 16.8895V16.7617C42.8488 16.7617 43.2596 16.7873 43.4137 16.7873C43.542 16.7873 43.9785 16.7617 44.0812 16.7617V16.8895C43.7988 16.9662 43.6704 17.094 43.6704 17.2985V19.8033C43.6704 20.9279 43.0285 21.5668 41.6164 21.5668C40.307 21.5668 39.6137 20.979 39.6137 19.931V17.324H39.5881Z" fill="#030303"/>
<path d="M45.2361 21.3624C45.5442 21.3112 45.6726 21.1579 45.6726 20.9534V17.4263C45.6726 17.1195 45.5185 16.9918 45.2361 16.9151V16.7873C45.3901 16.7873 45.6469 16.8128 45.7753 16.8128C45.9036 16.8128 46.0834 16.8128 46.2117 16.7873L49.2928 20.3911V17.2985C49.2928 17.1195 49.1644 16.9662 48.882 16.8895V16.7617C48.9847 16.7617 49.3955 16.7873 49.5239 16.7873C49.6522 16.7873 50.063 16.7617 50.1914 16.7617V16.8895C49.909 16.9662 49.7549 17.094 49.7549 17.2985V21.5413H49.5752C49.4468 21.5157 49.2414 21.3879 48.9077 21.0301L46.1347 17.8352V20.9534C46.1347 21.1323 46.2374 21.2857 46.5455 21.3624V21.4902C46.4428 21.4902 46.032 21.4646 45.9036 21.4646C45.7753 21.4646 45.3645 21.4902 45.2618 21.4902V21.3624H45.2361Z" fill="#030303"/>
<path d="M69.6018 20.3911H69.7302C69.8072 20.6467 69.9613 20.9023 70.1667 21.0301C70.3977 21.1835 70.7315 21.2601 71.0139 21.2601C71.6302 21.2601 72.041 20.9534 72.041 20.4678C72.041 19.9566 71.5275 19.701 70.9369 19.3943C70.4748 19.1643 69.6018 18.8065 69.6018 17.963C69.6018 17.1707 70.218 16.6851 71.168 16.6851C71.8099 16.6851 72.118 16.8384 72.5288 16.8129V17.7841H72.4004C72.2207 17.2218 71.7072 17.0173 71.1423 17.0173C70.5004 17.0173 70.2694 17.3752 70.2694 17.733C70.2694 18.2442 70.7829 18.5253 71.3734 18.7809C72.041 19.0621 72.7342 19.4454 72.7342 20.2633C72.7342 21.0301 72.118 21.5924 71.0139 21.5924C70.3464 21.5924 69.9613 21.4135 69.6018 21.3624V20.3911Z" fill="#030303"/>
<path d="M82.8753 19.5477L81.6172 17.5285C81.4118 17.1707 81.2321 16.9918 81.001 16.8895V16.7617C81.1807 16.7617 81.6429 16.7873 81.7712 16.7873C81.8996 16.7873 82.3874 16.7617 82.5672 16.7617V16.8895C82.4131 16.9151 82.3361 16.9918 82.3361 17.1195C82.3361 17.2218 82.4131 17.3751 82.4901 17.4774C82.5672 17.6052 83.4145 19.0109 83.4145 19.0109L84.3131 17.4774C84.4158 17.324 84.4671 17.1707 84.4671 17.0684C84.4671 16.9662 84.3901 16.9151 84.2617 16.8895V16.7617C84.4158 16.7617 84.7239 16.7873 84.8266 16.7873C84.9293 16.7873 85.2888 16.7617 85.4428 16.7617V16.8895C85.109 17.0173 84.878 17.324 84.6726 17.6818L83.5428 19.5732M83.5942 19.3432V20.9534C83.5942 21.1068 83.7226 21.3112 83.9793 21.3624V21.4902C83.8253 21.4902 83.3118 21.4646 83.1834 21.4646C83.055 21.4646 82.5928 21.4902 82.4131 21.4902V21.3624C82.6955 21.3112 82.8239 21.1068 82.8239 20.9534V19.4199" fill="#030303"/>
<path d="M59.511 16.763H62.4636C62.5663 16.763 62.7204 16.763 62.7974 16.7119H62.9258L62.9001 17.6576H62.7718C62.669 17.3509 62.5407 17.1209 61.9758 17.1209H60.692V18.7822H61.6677C61.8218 18.7822 61.9758 18.7822 62.0528 18.7566C62.2839 18.7055 62.3609 18.5777 62.4123 18.3988H62.5407C62.5407 18.5522 62.5407 18.8589 62.5407 18.9611C62.5407 19.0634 62.5407 19.3956 62.5407 19.549H62.438C62.3866 19.3701 62.2839 19.2167 62.0785 19.1656C62.0015 19.14 61.8218 19.14 61.6934 19.14H60.7177V21.0825H62.1042C62.7204 21.0825 62.9001 20.8269 63.0285 20.4691L63.1569 20.4947L63.0285 21.4659C62.5663 21.4148 62.3096 21.4148 61.7961 21.4148H60.3326C60.1785 21.4148 59.665 21.4403 59.511 21.4403V21.3126C59.7677 21.2614 59.9218 21.1336 59.9218 20.878V17.3253C59.9218 17.0953 59.7934 16.9675 59.511 16.9164V16.763Z" fill="#030303"/>
<path d="M51.9887 17.3509C51.9887 17.1208 51.8347 16.9675 51.5522 16.9164V16.7886C51.7063 16.7886 52.2198 16.8141 52.3739 16.8141C52.5022 16.8141 53.0157 16.7886 53.1955 16.7886V16.9164C52.913 16.9675 52.759 17.0953 52.759 17.3509V20.9291C52.759 21.1592 52.913 21.3125 53.1955 21.3637V21.4914C53.0414 21.4914 52.5279 21.4659 52.3739 21.4659C52.2455 21.4659 51.7063 21.4914 51.5522 21.4914V21.3637C51.8347 21.3125 51.9887 21.1847 51.9887 20.9291V17.3509Z" fill="#030303"/>
<path d="M74.352 17.3509C74.352 17.1208 74.198 16.9675 73.9155 16.9164V16.7886C74.0696 16.7886 74.5831 16.8141 74.7371 16.8141C74.8655 16.8141 75.379 16.7886 75.5587 16.7886V16.9164C75.2763 16.9675 75.1223 17.0953 75.1223 17.3509V20.9291C75.1223 21.1592 75.2763 21.3125 75.5587 21.3637V21.4914C75.4047 21.4914 74.8912 21.4659 74.7371 21.4659C74.6088 21.4659 74.0696 21.4914 73.9155 21.4914V21.3637C74.198 21.3125 74.352 21.1847 74.352 20.9291V17.3509Z" fill="#030303"/>
<path d="M78.4337 16.7879C76.8161 16.7879 76.5594 16.7624 76.2256 16.7368V17.7081H76.354C76.4823 17.2736 76.7134 17.1713 77.0215 17.1713H78.0229V20.9285C78.0229 21.1841 77.8945 21.3119 77.5864 21.363V21.4908C77.7404 21.4908 78.2796 21.4653 78.408 21.4653C78.562 21.4653 79.0499 21.4908 79.2296 21.4908V21.363C78.9472 21.3119 78.7931 21.1585 78.7931 20.9285V17.1969H79.7945C80.1282 17.1969 80.3593 17.2991 80.462 17.7336H80.5904V16.7624C80.308 16.7624 80.0512 16.7879 78.4337 16.7879Z" fill="#030303"/>
<path d="M65.5453 20.9285C65.5453 21.1585 65.6994 21.3119 65.9818 21.363V21.4908C65.8278 21.4908 65.3142 21.4653 65.1602 21.4653C65.0318 21.4653 64.5183 21.4908 64.3643 21.4908V21.363C64.621 21.3119 64.7751 21.1841 64.7751 20.9285V17.2991C64.7751 17.0691 64.6467 16.9413 64.3643 16.8902V16.7624C64.5183 16.7624 65.0318 16.7879 65.1602 16.7879C65.3913 16.7879 66.0588 16.7368 66.3156 16.7368C67.4453 16.7368 68.0872 17.1969 68.0872 17.9892C68.0872 18.6282 67.625 19.0371 66.9061 19.2161C66.9061 19.2161 67.0602 19.3183 67.2399 19.4972C67.4453 19.7272 67.9845 20.494 68.2156 20.7752C68.4466 21.0563 68.7291 21.3375 69.0372 21.363V21.4653C68.8831 21.4908 68.652 21.5164 68.4723 21.5164C68.0872 21.5164 67.7791 21.3886 67.471 21.0307C67.2142 20.724 66.7777 20.0595 66.521 19.7528C66.3669 19.5483 66.1615 19.3694 65.8021 19.3183C65.7251 19.3183 65.6737 19.2927 65.571 19.2927V20.9285H65.5453ZM65.5453 19.0116C65.6994 19.0371 65.9305 19.0371 66.1359 19.0371C67.0345 19.0371 67.2912 18.526 67.2912 18.0914C67.2912 17.4525 66.8548 17.0691 66.0845 17.0691C65.9305 17.0691 65.6994 17.0946 65.5196 17.1202V19.0116H65.5453Z" fill="#030303"/>
<path d="M54.3248 17.3496C54.2221 17.1195 54.0681 16.9662 53.7856 16.8895V16.7617C53.9654 16.7617 54.5302 16.7873 54.6586 16.7873C54.787 16.7873 55.2748 16.7617 55.4545 16.7617V16.8895C55.3005 16.9151 55.1208 16.9918 55.1208 17.1707C55.1208 17.2729 55.1978 17.4263 55.3262 17.733L56.5586 20.4933L57.714 17.733C57.8167 17.5029 57.868 17.324 57.868 17.1962C57.868 17.0429 57.7396 16.9406 57.5342 16.9151V16.7873C57.6883 16.7873 58.0734 16.8128 58.1761 16.8128C58.2788 16.8128 58.7153 16.7873 58.895 16.7873V16.9151C58.6126 16.9918 58.4329 17.1451 58.2788 17.5285L56.5843 21.5157H56.1991L54.3248 17.3496Z" fill="#030303"/>
<path d="M58.6632 4.77597C58.4578 4.34146 58.1754 4.03475 57.6619 3.90696V3.65137C57.97 3.65137 59.0227 3.67693 59.2794 3.67693C59.5105 3.67693 60.5118 3.65137 60.8456 3.65137V3.90696C60.5632 3.95808 60.2294 4.11143 60.2294 4.41814C60.2294 4.62261 60.3578 4.90376 60.6145 5.46606L62.9253 10.7057L65.1077 5.46606C65.2874 5.03156 65.4158 4.72485 65.4158 4.46926C65.4158 4.18811 65.1591 4.00919 64.7996 3.93252V3.67693C65.082 3.67693 65.8009 3.70249 66.0063 3.70249C66.2117 3.70249 67.059 3.67693 67.3671 3.67693V3.90696C66.828 4.06031 66.4942 4.36702 66.1861 5.08268L62.951 12.6482H62.2321L58.6632 4.77597Z" fill="#030303"/>
<path d="M27.4941 12.3402C27.9049 12.2379 28.213 12.059 28.213 11.5734V4.64688C28.213 4.18681 27.9306 4.0079 27.4941 3.8801V3.62451C27.7252 3.62451 28.6752 3.65007 28.9063 3.65007C29.163 3.65007 30.1644 3.62451 30.3955 3.62451V3.8801C29.9846 3.98234 29.6509 4.16125 29.6509 4.64688V7.53505H34.8373V4.64688C34.8373 4.16125 34.5549 3.98234 34.1184 3.8801V3.62451C34.3494 3.62451 35.3251 3.65007 35.5819 3.65007C35.8129 3.65007 36.7886 3.62451 36.994 3.62451V3.8801C36.5832 3.98234 36.2494 4.16125 36.2494 4.64688V11.5734C36.2494 12.0335 36.5318 12.2124 36.994 12.3402V12.5702C36.7886 12.5702 35.8129 12.5446 35.5819 12.5446C35.3251 12.5446 34.3494 12.5702 34.1184 12.5702V12.3402C34.5292 12.2379 34.8373 12.059 34.8373 11.5734V8.30183H29.6509V11.5734C29.6509 12.059 29.9333 12.2124 30.3955 12.3402V12.5702C30.1644 12.5702 29.1887 12.5446 28.9063 12.5446C28.6752 12.5446 27.7252 12.5702 27.4941 12.5702V12.3402Z" fill="#030303"/>
<path d="M87.5232 12.3402C88.0624 12.2379 88.3705 12.0335 88.3705 11.5479V4.64689C88.3705 4.16127 88.088 3.98236 87.5489 3.88012V3.62453C87.857 3.62453 88.8326 3.65009 89.0894 3.65009C89.5259 3.65009 90.7326 3.54785 91.6826 3.54785C94.8663 3.54785 96.8177 5.31143 96.8177 8.0207C96.8177 10.6533 94.7893 12.5958 91.5029 12.5958C90.5529 12.5958 89.4232 12.5191 88.9867 12.5191C88.7299 12.5191 87.8056 12.5447 87.5232 12.5447V12.3402ZM89.8083 11.8801C90.1421 11.9312 90.7326 11.9824 91.2204 11.9824C93.8907 11.9824 95.3028 10.3721 95.3028 8.12293C95.3028 5.79705 93.8393 4.16127 91.3231 4.16127C90.8096 4.16127 90.1678 4.18683 89.834 4.26351V11.8801H89.8083Z" fill="#030303"/>
<path d="M51.3981 11.5236C51.3981 11.9837 51.6805 12.2392 52.2197 12.3415V12.5971C51.9116 12.5971 50.9359 12.5715 50.6535 12.5715C50.4224 12.5715 49.4467 12.5971 49.1643 12.5971V12.3415C49.6521 12.2392 49.9602 12.0092 49.9602 11.5236V4.67375C49.9602 4.2648 49.7292 3.98365 49.1643 3.88142V3.62583C49.4724 3.62583 50.4224 3.65138 50.6791 3.65138C51.1156 3.65138 52.3737 3.57471 52.8616 3.57471C55.0183 3.57471 56.1993 4.46928 56.1993 5.97726C56.1993 7.17854 55.3007 7.97087 53.9399 8.30314C53.9399 8.30314 54.248 8.48206 54.5561 8.83988C54.9413 9.27439 55.9683 10.7824 56.4047 11.2936C56.8155 11.8047 57.3804 12.367 57.9453 12.3926V12.5971C57.6628 12.6482 57.2264 12.6993 56.8926 12.6993C56.1737 12.6993 55.5831 12.4437 55.0183 11.7536C54.5304 11.1658 53.6832 9.91336 53.1953 9.27439C52.8872 8.891 52.5021 8.55873 51.8089 8.4565C51.6805 8.43094 51.5521 8.40538 51.3981 8.40538V11.5236ZM51.3981 7.8942C51.6805 7.91975 52.0913 7.94531 52.5278 7.94531C54.1967 7.94531 54.7358 6.97407 54.7358 6.13062C54.7358 4.92934 53.9399 4.18813 52.4507 4.18813C52.1426 4.18813 51.7062 4.21368 51.3981 4.29036V7.8942Z" fill="#030303"/>
<path d="M79.692 11.5236C79.692 11.9837 79.9744 12.2392 80.5136 12.3415V12.5971C80.2055 12.5971 79.2298 12.5715 78.9474 12.5715C78.7163 12.5715 77.7407 12.5971 77.4583 12.5971V12.3415C77.9461 12.2392 78.2542 12.0092 78.2542 11.5236V4.67375C78.2542 4.2648 78.0231 3.98365 77.4583 3.88142V3.62583C77.7664 3.62583 78.6907 3.65138 78.9731 3.65138C79.4096 3.65138 80.6677 3.57471 81.1555 3.57471C83.3122 3.57471 84.4933 4.46928 84.4933 5.97726C84.4933 7.17854 83.5947 7.97087 82.2339 8.30314C82.2339 8.30314 82.542 8.48206 82.8501 8.83988C83.2352 9.27439 84.2879 10.7824 84.6987 11.2936C85.1352 11.8047 85.6744 12.367 86.2392 12.3926V12.5971C85.9568 12.6482 85.5203 12.6993 85.1865 12.6993C84.4419 12.6993 83.8771 12.4437 83.3122 11.7536C82.8244 11.1658 81.9771 9.91336 81.4893 9.27439C81.1812 8.891 80.796 8.55873 80.1028 8.4565C79.9744 8.43094 79.8461 8.40538 79.692 8.40538V11.5236ZM79.692 7.8942C79.9744 7.91975 80.3852 7.94531 80.8217 7.94531C82.4906 7.94531 83.0298 6.97407 83.0298 6.13062C83.0298 4.92934 82.2339 4.18813 80.7447 4.18813C80.4366 4.18813 80.0001 4.21368 79.692 4.29036V7.8942Z" fill="#030303"/>
<path d="M38.3804 12.3408C38.9453 12.213 39.2534 11.8552 39.4588 11.344L42.3344 4.46862C42.4628 4.18747 42.5912 3.59961 42.5912 3.59961H43.3871C43.3871 3.59961 43.5412 4.18747 43.6439 4.46862L46.6735 11.3696C46.8789 11.8552 47.1357 12.1875 47.7262 12.3408V12.5709C47.3924 12.5709 46.3654 12.5453 46.1344 12.5453C45.9033 12.5453 44.9276 12.5709 44.5938 12.5709V12.3408C45.0303 12.2386 45.1844 12.0086 45.1844 11.8041C45.1844 11.6252 45.1073 11.4207 45.0046 11.1907L44.3628 9.70824H41.025L40.4344 11.1907C40.3574 11.3696 40.2804 11.5996 40.2804 11.753C40.2804 12.0086 40.4088 12.1875 40.9223 12.3408V12.5709C40.6142 12.5709 39.8439 12.5453 39.6642 12.5453L38.3547 12.5709L38.3804 12.3408ZM44.106 8.99258L42.6682 5.6699L41.3331 8.99258H44.106Z" fill="#030303"/>
<path d="M66.8547 12.3408C67.4196 12.213 67.7277 11.8552 67.9331 11.344L70.8087 4.46862C70.9371 4.18747 71.0655 3.59961 71.0655 3.59961H71.8614C71.8614 3.59961 72.0155 4.18747 72.1182 4.46862L75.1479 11.3696C75.3533 11.8552 75.61 12.1875 76.2006 12.3408V12.5709C75.8668 12.5709 74.8398 12.5453 74.6087 12.5453C74.3776 12.5453 73.4019 12.5709 73.0682 12.5709V12.3408C73.5046 12.2386 73.6587 12.0086 73.6587 11.8041C73.6587 11.6252 73.5817 11.4207 73.5046 11.1907L72.8628 9.70824H69.525L68.9344 11.1907C68.8574 11.3696 68.7804 11.5996 68.7804 11.753C68.7804 12.0086 68.9088 12.1875 69.4223 12.3408V12.5709C69.1142 12.5709 68.3439 12.5453 68.1642 12.5453L66.8547 12.5709V12.3408ZM72.5803 8.99258L71.1425 5.6699L69.8074 8.99258H72.5803Z" fill="#030303"/>
<path d="M0.970703 0.864746H20.9974V8.40468C20.9974 11.8552 19.7137 19.1906 11.0611 24.6347C11.0611 24.6347 1.68961 20.7242 0.970703 8.40468V0.864746Z" fill="#030303"/>
<path d="M0.945801 0.864746H20.9725V8.40468C20.9725 11.8552 19.6888 19.1651 11.0362 24.6347C11.0362 24.6347 1.66471 20.7497 0.945801 8.40468V0.864746Z" stroke="black" stroke-width="1.1041"/>
<path d="M16.1455 10.5508C16.1455 10.5508 15.9657 11.1131 15.1698 10.5252L12.4482 10.4486C12.4482 10.4486 12.0888 10.5508 12.0374 10.193C12.0374 10.193 12.1145 9.45175 12.0631 9.37507C12.0631 9.37507 12.0888 9.1706 11.7293 9.1706C11.7293 9.1706 11.1645 9.24728 11.1645 8.76165C11.1645 8.76165 11.0618 8.25047 11.832 8.25047C11.832 8.25047 12.0631 8.35271 12.0888 8.046C12.0888 8.046 12.0631 5.95015 12.0631 5.7968C12.0631 5.7968 12.1401 5.59233 11.755 5.56677C11.755 5.56677 11.2158 5.669 11.1645 5.33674C11.1645 5.33674 11.1388 4.79999 11.4982 4.77443C11.4982 4.77443 11.9347 4.79999 12.0117 4.69776C12.0117 4.69776 12.1145 4.74888 12.0888 4.36549L12.1145 3.70095C12.1145 3.70095 12.1658 3.52204 12.4482 3.5476C12.4482 3.5476 12.9617 3.57316 13.0131 3.52204C13.0131 3.52204 13.1158 3.36868 13.1671 3.31757C13.1671 3.31757 13.4239 3.29201 13.4752 3.36868C13.4752 3.36868 13.8604 3.62428 15.3495 3.52204C15.3495 3.52204 15.5806 3.52204 15.632 3.59872C15.632 3.59872 15.9144 3.80319 16.0684 3.57316C16.0684 3.57316 16.2995 3.52204 17.0441 3.5476C17.0441 3.5476 17.84 3.75207 18.4049 3.31757L18.5846 3.34312C18.5846 3.34312 18.8157 3.72651 18.9698 3.59872C18.9698 3.59872 19.4576 3.5476 19.5346 3.64983C19.5346 3.64983 19.6887 3.87987 19.6116 4.51884C19.6116 4.51884 19.5089 4.79999 19.9968 4.79999C19.9968 4.79999 20.536 4.69776 20.4589 5.20894C20.4589 5.20894 20.613 5.77124 19.7143 5.69456C19.7143 5.69456 19.6116 5.84792 19.6116 5.97571C19.6116 5.97571 19.586 7.81597 19.586 8.02044C19.586 8.02044 19.5603 8.30159 19.9711 8.30159C19.9711 8.30159 20.4846 8.27603 20.5103 8.7361C20.5103 8.7361 20.5873 9.34951 19.817 9.24728C19.817 9.24728 19.586 9.27284 19.5603 9.42619L19.5346 10.2441C19.5346 10.2441 19.5603 10.653 19.0981 10.5508C19.0211 10.5508 16.5563 10.6019 16.3509 10.5252C16.2739 10.4997 16.1712 10.4741 16.1455 10.5508Z" fill="white"/>
<path d="M10.8825 13.2616C10.8825 13.2616 10.9852 13.2104 11.0365 13.1338C11.0365 13.1338 11.3703 13.1082 11.4217 13.0571L12.5 13.1338C12.5 13.1338 13.5527 13.2104 14.0149 12.8782C14.0149 12.8782 14.1689 12.8782 14.2973 12.9293C14.2973 12.9293 14.5284 12.9804 14.5797 13.0826L15.1959 13.0571C15.1959 13.0571 15.5554 13.1593 15.5297 13.3894V13.6705C15.5297 13.6705 15.4527 14.2584 15.6324 14.2839H16.0946C16.0946 14.2839 16.4797 14.4628 16.4283 14.6929C16.4283 14.6929 16.454 15.0251 16.0946 15.0763C16.0946 15.0763 15.7608 15.1785 15.6324 15.1529C15.6324 15.1529 15.5297 15.3063 15.504 15.4852L15.4784 17.6066C15.4784 17.6066 15.4527 17.8366 15.7865 17.8111C15.7865 17.8111 16.3 17.76 16.4283 18.0411C16.4283 18.0411 16.5567 18.5012 16.3 18.5779L16.0946 18.6801L15.6838 18.7568C15.6838 18.7568 15.504 18.7823 15.4784 19.089V19.6513C15.4784 19.6513 15.504 20.0347 15.1959 20.0347L14.7338 20.0603C14.7338 20.0603 14.6311 20.1625 14.4 20.0858C14.4 20.0858 11.6271 20.137 11.55 20.1114L11.2163 20.1625C11.2163 20.1625 10.8568 20.4948 10.5744 20.2392L10.3433 20.0603C10.3433 20.0603 10.1892 20.0858 10.1122 20.0858C10.0352 20.0603 7.05685 20.1114 7.05685 20.1114C7.05685 20.1114 6.41497 20.1881 6.36362 19.958C6.36362 19.958 6.28659 19.1402 6.31227 19.0379C6.31227 19.0379 6.31226 18.8079 6.15821 18.7823C6.15821 18.7823 5.51633 18.7568 5.51633 18.6801C5.51633 18.6801 5.18255 18.4501 5.28525 18.1945C5.28525 18.1945 5.38795 17.8622 5.74741 17.8366C5.74741 17.8366 6.26091 17.9133 6.26091 17.76C6.26091 17.76 6.28659 17.6577 6.28659 17.5044C6.28659 17.5044 6.31227 15.5874 6.31227 15.4596C6.31227 15.4596 6.36362 15.2041 6.15821 15.2041C6.15821 15.2041 5.92714 15.2807 5.77308 15.1785C5.77308 15.1785 5.38795 15.2041 5.31093 14.8973C5.31093 14.8973 5.2339 14.6929 5.3366 14.5395C5.3366 14.5395 5.51633 14.1817 6.02984 14.3095C6.02984 14.3095 6.31227 14.3862 6.36362 14.1817L6.33794 13.4149C6.33794 13.4149 6.26091 13.2104 6.67172 13.0826C6.67172 13.0826 7.18523 13.236 7.36495 12.9804C7.36495 12.9804 7.54468 12.6226 7.69873 12.8782C7.69873 12.8782 8.00684 13.1593 8.85412 13.1338C8.85412 13.1338 10.3176 13.0315 10.3433 13.0826C10.3433 13.0826 10.7027 13.1338 10.8054 13.236L10.8825 13.2616Z" fill="white"/>
<path d="M6.46579 10.5514C6.46579 10.5514 6.28606 11.1137 5.49013 10.5259L2.76854 10.4748C2.76854 10.4748 2.40909 10.577 2.35774 10.2192C2.35774 10.2192 2.43476 9.47797 2.38341 9.40129C2.38341 9.40129 2.40909 9.19682 2.04963 9.19682C2.04963 9.19682 1.51045 9.27349 1.48478 8.78787C1.48478 8.78787 1.38208 8.27669 2.15233 8.27669C2.15233 8.27669 2.38341 8.37893 2.40909 8.07222C2.40909 8.07222 2.38341 5.97637 2.38341 5.79746C2.38341 5.79746 2.46044 5.59298 2.07531 5.56742C2.07531 5.56742 1.53613 5.66966 1.48478 5.31183C1.48478 5.31183 1.4591 4.77509 1.81856 4.74953C1.81856 4.74953 2.25504 4.77509 2.33206 4.67286C2.33206 4.67286 2.43476 4.72397 2.40909 4.34059L2.43476 3.67605C2.43476 3.67605 2.48611 3.49714 2.76854 3.5227C2.76854 3.5227 3.28205 3.54825 3.3334 3.49714C3.3334 3.49714 3.4361 3.34378 3.48745 3.29266C3.48745 3.29266 3.7442 3.2671 3.79555 3.34378C3.79555 3.34378 4.18068 3.59937 5.66985 3.49714C5.66985 3.49714 5.90093 3.49714 5.95228 3.57381C5.95228 3.57381 6.23471 3.77829 6.38876 3.54825C6.38876 3.54825 6.61984 3.49714 7.36442 3.5227C7.36442 3.5227 8.16036 3.72717 8.69954 3.29266L8.87927 3.31822C8.87927 3.31822 9.11035 3.70161 9.2644 3.57381C9.2644 3.57381 9.75223 3.5227 9.82925 3.62493C9.82925 3.62493 9.98331 3.85496 9.90628 4.49394C9.90628 4.49394 9.80358 4.77509 10.2914 4.77509C10.2914 4.77509 10.8306 4.67286 10.7536 5.18404C10.7536 5.18404 10.9076 5.74634 10.009 5.66966C10.009 5.66966 9.90628 5.82301 9.90628 5.95081C9.90628 5.95081 9.8806 7.79107 9.8806 7.99554C9.8806 7.99554 9.85493 8.27669 10.2657 8.27669C10.2657 8.27669 10.7792 8.25113 10.8049 8.71119C10.8049 8.71119 10.8819 9.32461 10.1117 9.22238C10.1117 9.22238 9.8806 9.24794 9.85493 9.40129L9.80358 10.2192C9.80358 10.2192 9.82925 10.6281 9.3671 10.5259C9.29007 10.5259 6.82524 10.577 6.61984 10.5003C6.61984 10.5003 6.51714 10.4748 6.46579 10.5514Z" fill="white"/>
<path d="M16.1455 10.5508C16.1455 10.5508 15.9657 11.1131 15.1698 10.5252L12.4482 10.4486C12.4482 10.4486 12.0888 10.5508 12.0374 10.193C12.0374 10.193 12.1145 9.45175 12.0631 9.37507C12.0631 9.37507 12.0888 9.1706 11.7293 9.1706C11.7293 9.1706 11.1645 9.24728 11.1645 8.76165C11.1645 8.76165 11.0618 8.25047 11.832 8.25047C11.832 8.25047 12.0631 8.35271 12.0888 8.046C12.0888 8.046 12.0631 5.95015 12.0631 5.7968C12.0631 5.7968 12.1401 5.59233 11.755 5.56677C11.755 5.56677 11.2158 5.669 11.1645 5.33674C11.1645 5.33674 11.1388 4.79999 11.4982 4.77443C11.4982 4.77443 11.9347 4.79999 12.0117 4.69776C12.0117 4.69776 12.1145 4.74888 12.0888 4.36549L12.1145 3.70095C12.1145 3.70095 12.1658 3.52204 12.4482 3.5476C12.4482 3.5476 12.9617 3.57316 13.0131 3.52204C13.0131 3.52204 13.1158 3.36868 13.1671 3.31757C13.1671 3.31757 13.4239 3.29201 13.4752 3.36868C13.4752 3.36868 13.8604 3.62428 15.3495 3.52204C15.3495 3.52204 15.5806 3.52204 15.632 3.59872C15.632 3.59872 15.9144 3.80319 16.0684 3.57316C16.0684 3.57316 16.2995 3.52204 17.0441 3.5476C17.0441 3.5476 17.84 3.75207 18.4049 3.31757L18.5846 3.34312C18.5846 3.34312 18.8157 3.72651 18.9698 3.59872C18.9698 3.59872 19.4576 3.5476 19.5346 3.64983C19.5346 3.64983 19.6887 3.87987 19.6116 4.51884C19.6116 4.51884 19.5089 4.79999 19.9968 4.79999C19.9968 4.79999 20.536 4.69776 20.4589 5.20894C20.4589 5.20894 20.613 5.77124 19.7143 5.69456C19.7143 5.69456 19.6116 5.84792 19.6116 5.97571C19.6116 5.97571 19.586 7.81597 19.586 8.02044C19.586 8.02044 19.5603 8.30159 19.9711 8.30159C19.9711 8.30159 20.4846 8.27603 20.5103 8.7361C20.5103 8.7361 20.5873 9.34951 19.817 9.24728C19.817 9.24728 19.586 9.27284 19.5603 9.42619L19.5346 10.2441C19.5346 10.2441 19.5603 10.653 19.0981 10.5508C19.0211 10.5508 16.5563 10.6019 16.3509 10.5252C16.2739 10.4997 16.1712 10.4741 16.1455 10.5508Z" fill="#1E1E1E"/>
<path d="M16.1455 10.5508C16.1455 10.5508 15.9657 11.1131 15.1698 10.5252L12.4482 10.4486C12.4482 10.4486 12.0888 10.5508 12.0374 10.193C12.0374 10.193 12.1145 9.45175 12.0631 9.37507C12.0631 9.37507 12.0888 9.1706 11.7293 9.1706C11.7293 9.1706 11.1645 9.24728 11.1645 8.76166C11.1645 8.76166 11.0618 8.25047 11.832 8.25047C11.832 8.25047 12.0631 8.35271 12.0888 8.046C12.0888 8.046 12.0631 5.95015 12.0631 5.7968C12.0631 5.7968 12.1401 5.59233 11.755 5.56677C11.755 5.56677 11.2158 5.669 11.1645 5.33674C11.1645 5.33674 11.1388 4.79999 11.4982 4.77443C11.4982 4.77443 11.9347 4.79999 12.0117 4.69776C12.0117 4.69776 12.1145 4.74888 12.0888 4.36549L12.1145 3.70095C12.1145 3.70095 12.1658 3.52204 12.4482 3.5476C12.4482 3.5476 12.9617 3.57316 13.0131 3.52204C13.0131 3.52204 13.1158 3.36868 13.1671 3.31757C13.1671 3.31757 13.4239 3.29201 13.4752 3.36868C13.4752 3.36868 13.8604 3.62428 15.3495 3.52204C15.3495 3.52204 15.5806 3.52204 15.632 3.59872C15.632 3.59872 15.9144 3.80319 16.0684 3.57316C16.0684 3.57316 16.2995 3.52204 17.0441 3.5476C17.0441 3.5476 17.84 3.75207 18.4049 3.31757L18.5846 3.34312C18.5846 3.34312 18.8157 3.72651 18.9698 3.59872C18.9698 3.59872 19.4576 3.5476 19.5346 3.64983C19.5346 3.64983 19.6887 3.87987 19.6116 4.51884C19.6116 4.51884 19.5089 4.79999 19.9968 4.79999C19.9968 4.79999 20.536 4.69776 20.4589 5.20894C20.4589 5.20894 20.613 5.77124 19.7143 5.69456C19.7143 5.69456 19.6116 5.84792 19.6116 5.97571C19.6116 5.97571 19.586 7.81597 19.586 8.02044C19.586 8.02044 19.5603 8.30159 19.9711 8.30159C19.9711 8.30159 20.4846 8.27603 20.5103 8.7361C20.5103 8.7361 20.5873 9.34951 19.817 9.24728C19.817 9.24728 19.586 9.27284 19.5603 9.42619L19.5346 10.2441C19.5346 10.2441 19.5603 10.653 19.0981 10.5508C19.0211 10.5508 16.5563 10.6019 16.3509 10.5252C16.2739 10.4997 16.1712 10.4741 16.1455 10.5508Z" stroke="black" stroke-width="0.264139"/>
<path d="M13.0648 3.8802C13.0648 3.8802 13.0905 4.21247 13.0905 4.28915C13.0905 4.36583 13.0391 8.96647 13.0391 8.96647C13.0391 8.96647 13.0905 9.32429 12.7824 9.50321C12.7824 9.50321 12.7054 9.52877 12.6797 9.29873L12.7054 4.4425C12.731 4.4425 12.7567 3.85465 13.0648 3.8802Z" fill="white"/>
<path d="M13.0648 3.8802C13.0648 3.8802 13.0905 4.21247 13.0905 4.28915C13.0905 4.36583 13.0391 8.96647 13.0391 8.96647C13.0391 8.96647 13.0905 9.32429 12.7824 9.50321C12.7824 9.50321 12.7054 9.52877 12.6797 9.29873L12.7054 4.4425C12.731 4.4425 12.7567 3.85465 13.0648 3.8802Z" stroke="black" stroke-width="0.278137"/>
<path d="M12.5255 9.555C12.5255 9.555 12.5512 5.00548 12.5512 4.9288C12.5255 4.85212 12.5768 5.00548 12.5768 5.00548C12.5768 5.00548 12.5255 4.21314 12.7309 3.88088C12.7309 3.88088 12.6539 3.59973 12.2944 3.95755L12.2687 4.57097C12.2687 4.57097 12.2687 4.95436 11.9349 4.9288C11.9349 4.9288 11.5498 4.90324 11.3701 5.08215C11.3701 5.08215 11.2674 5.43998 11.6525 5.3633C11.6525 5.3633 12.2431 5.3633 12.2687 5.59334L12.2431 8.04701C12.2431 8.04701 12.3714 8.45596 11.9093 8.45596C11.9093 8.45596 11.3444 8.4304 11.3701 8.76266C11.3701 8.76266 11.4728 9.04382 11.9606 8.96714C11.9606 8.96714 12.2944 9.01826 12.2944 9.35052V9.96394C12.2944 9.96394 12.2687 10.2195 12.5768 10.2195H15.1187C15.1187 10.2195 15.2471 10.2451 15.2471 10.0662C15.2471 10.0662 15.2214 9.93838 15.0417 9.93838H12.9106C12.9106 9.93838 12.5512 10.0406 12.5255 9.555Z" fill="white"/>
<path d="M13.0135 9.52935C13.0135 9.52935 12.9365 9.75938 13.1932 9.70826H14.8621L15.3243 9.8105C15.3243 9.8105 15.7865 9.70826 15.3243 9.42711C15.3243 9.42711 13.8351 9.45267 13.7068 9.40155C13.7068 9.40155 13.3986 9.32488 13.3216 9.29932C13.3216 9.32488 13.1676 9.27376 13.0135 9.52935Z" fill="white"/>
<path d="M13.0135 9.52935C13.0135 9.52935 12.9365 9.75938 13.1932 9.70826H14.8621L15.3243 9.8105C15.3243 9.8105 15.7865 9.70826 15.3243 9.42711C15.3243 9.42711 13.8351 9.45267 13.7068 9.40155C13.7068 9.40155 13.3986 9.32488 13.3216 9.29932C13.3216 9.32488 13.1676 9.27376 13.0135 9.52935Z" stroke="black" stroke-width="0.278137"/>
<path d="M15.7864 9.75931C15.7864 9.75931 15.4783 9.75931 15.504 10.1683C15.504 10.1683 15.5296 10.475 15.8634 10.475C15.8634 10.475 16.1458 10.4238 16.1202 10.0916C16.1202 10.1171 15.9404 9.70819 15.7864 9.75931Z" fill="white"/>
<path d="M16.0168 9.60512C16.0168 9.60512 16.1708 9.45177 16.2479 9.45177C16.2479 9.45177 17.8654 9.60512 18.1478 9.40065C18.1478 9.40065 18.4046 9.34953 18.456 9.40065C18.456 9.40065 18.687 9.60512 18.687 9.70736C18.687 9.70736 18.6614 9.86071 18.3789 9.75848C18.3789 9.75848 16.556 9.78404 16.4533 9.78404C16.479 9.78404 15.9654 9.88627 16.0168 9.60512Z" fill="white"/>
<path d="M16.0168 9.60512C16.0168 9.60512 16.1708 9.45177 16.2479 9.45177C16.2479 9.45177 17.8654 9.60512 18.1478 9.40065C18.1478 9.40065 18.4046 9.34953 18.4559 9.40065C18.4559 9.40065 18.687 9.60512 18.687 9.70736C18.687 9.70736 18.6614 9.86071 18.3789 9.75848C18.3789 9.75848 16.556 9.78404 16.4533 9.78404C16.479 9.78404 15.9654 9.88627 16.0168 9.60512Z" stroke="black" stroke-width="0.278137"/>
<path d="M16.2234 10.117C16.2234 10.117 16.2234 9.98923 16.4545 9.98923L18.7396 9.96367C18.7396 9.96367 18.945 10.0659 18.945 9.68252C18.945 9.68252 19.022 7.91894 19.0477 5.97645C19.0477 5.38859 19.0733 4.80073 19.0477 4.23843C19.0477 4.23843 18.9963 4.0084 18.945 3.95728C18.945 3.95728 18.945 3.70169 19.2274 3.80392C19.2274 3.80392 19.4585 3.82948 19.4071 4.18731L19.4328 4.74961C19.4328 4.74961 19.3815 5.0052 19.8179 4.92852C19.8179 4.92852 20.2544 5.0052 20.2801 5.15856C20.2801 5.15856 20.4085 5.49083 19.895 5.43971H19.5098C19.5098 5.43971 19.3558 5.54194 19.4071 5.72086L19.3044 8.09785C19.3044 8.09785 19.2788 8.5068 19.6639 8.48124C19.6639 8.48124 20.0747 8.45568 20.1517 8.58348C20.1517 8.58348 20.4341 8.99242 19.8179 8.96686C19.8179 8.96686 19.4328 8.9413 19.3558 9.01798C19.3558 9.01798 19.2788 9.09466 19.2531 9.86143C19.2531 9.86143 19.2788 10.3215 18.945 10.2704C18.945 10.2704 16.6855 10.2959 16.4801 10.2448C16.4801 10.2448 16.2747 10.2959 16.2234 10.117Z" fill="white"/>
<path d="M13.3217 3.75296L13.2703 8.94146C13.2703 8.94146 13.2447 9.17149 13.6555 9.22261C13.6555 9.22261 14.1176 9.27373 14.246 9.22261C14.246 9.22261 14.5541 9.19705 15.35 9.24817C15.35 9.24817 15.5554 9.45264 15.5554 9.19705C15.5554 9.19705 15.6838 5.00536 15.6325 4.11079C15.6325 4.11079 15.6068 3.7274 15.35 3.7274C15.35 3.7274 14.1176 3.82964 14.0149 3.7274L13.5271 3.59961C13.4757 3.59961 13.296 3.62517 13.3217 3.75296Z" fill="white"/>
<path d="M15.8628 4.00763C15.8628 4.00763 15.8114 6.43575 15.8371 6.53798L15.8114 8.58271L15.7344 9.29837C15.7344 9.29837 15.8371 9.45172 15.9141 9.34949C15.9141 9.34949 16.4276 9.22169 16.7614 9.27281C16.7614 9.27281 17.8141 9.37504 18.0195 9.19613C18.0195 9.19613 18.1735 9.27281 18.2249 9.01722C18.2249 9.01722 18.2762 4.49326 18.2506 4.41658C18.2506 4.41658 18.3019 3.7776 18.2762 3.70092C18.2762 3.70092 18.2506 3.54757 17.9938 3.67536C17.9938 3.67536 18.0195 3.80316 16.479 3.75204C16.479 3.75204 15.9141 3.75204 15.8628 4.00763Z" fill="white"/>
<path d="M18.4566 3.93234L18.4309 9.04416C18.4309 9.04416 18.5593 9.50422 18.7647 9.45311C18.7647 9.45311 18.7904 9.35087 18.816 9.19752L18.8931 4.34129C18.8931 4.31573 18.739 3.54895 18.4566 3.93234Z" fill="white"/>
<path d="M18.4566 3.93234L18.4309 9.04416C18.4309 9.04416 18.5593 9.50422 18.7647 9.45311C18.7647 9.45311 18.7904 9.35087 18.816 9.19752L18.8931 4.34129C18.8931 4.31573 18.739 3.54895 18.4566 3.93234Z" stroke="black" stroke-width="0.278137"/>
<path d="M16.4539 5.46634C16.4025 5.33855 16.7363 5.31299 16.7363 5.31299L16.8903 5.33855C16.993 5.31299 17.1214 5.36411 17.1214 5.36411C17.2241 5.54302 17.0444 5.64526 17.0444 5.64526L16.993 5.87529C16.9674 6.0542 16.993 7.58775 16.993 7.58775C17.0187 7.66443 17.1471 7.81778 17.1471 7.81778C17.1471 7.97114 16.9674 7.92002 16.9674 7.92002L16.5052 7.94558C16.3512 7.92002 16.4025 7.76666 16.4025 7.76666C16.5566 7.68999 16.6079 7.38328 16.6079 7.38328V5.77305L16.4539 5.46634Z" fill="#1E1E1E"/>
<path d="M14.2712 6.97311L14.2456 7.48429L14.3996 7.71432C14.5023 7.84212 14.3226 7.94435 14.3226 7.94435L13.8091 7.89323C13.7064 7.84212 13.8091 7.68876 13.8091 7.68876C13.9375 7.61208 13.9631 7.40761 13.9631 7.40761L13.9375 6.46192L13.9631 5.77183C13.9631 5.69515 13.8348 5.5418 13.8348 5.5418C13.7321 5.51624 13.7577 5.38844 13.7577 5.38844C13.7834 5.31176 14.0658 5.36288 14.0658 5.36288H14.7591C15.401 5.56736 15.3239 6.05298 15.3239 6.05298C15.3753 6.51304 14.8618 6.71752 14.8618 6.71752L14.8361 6.97311L15.2983 7.71432C15.3753 7.791 15.3753 7.84212 15.3753 7.84212C15.2983 8.02103 15.0415 7.84212 15.0415 7.84212L14.4253 6.92199C14.3739 6.84531 14.2712 6.97311 14.2712 6.97311ZM14.2969 5.69515C14.3226 6.05298 14.3226 6.5386 14.3226 6.5386C14.6307 6.76863 14.8104 6.43637 14.8104 6.43637C15.2212 6.05298 14.8104 5.69515 14.7334 5.59291C14.6564 5.49068 14.3483 5.56736 14.3483 5.56736L14.2969 5.69515Z" fill="#1E1E1E"/>
<path d="M10.8825 13.2616C10.8825 13.2616 10.9852 13.2104 11.0365 13.1338C11.0365 13.1338 11.3703 13.1082 11.4217 13.0571L12.5 13.1338C12.5 13.1338 13.5527 13.2104 14.0149 12.8782C14.0149 12.8782 14.1689 12.8782 14.2973 12.9293C14.2973 12.9293 14.5284 12.9804 14.5797 13.0826L15.1959 13.0571C15.1959 13.0571 15.5554 13.1593 15.5297 13.3894V13.6705C15.5297 13.6705 15.4527 14.2584 15.6324 14.2839H16.0946C16.0946 14.2839 16.4797 14.4628 16.4283 14.6929C16.4283 14.6929 16.454 15.0251 16.0946 15.0763C16.0946 15.0763 15.7608 15.1785 15.6324 15.1529C15.6324 15.1529 15.5297 15.3063 15.504 15.4852L15.4784 17.6066C15.4784 17.6066 15.4527 17.8366 15.7865 17.8111C15.7865 17.8111 16.3 17.76 16.4283 18.0411C16.4283 18.0411 16.5567 18.5012 16.3 18.5779L16.0946 18.6801L15.6838 18.7568C15.6838 18.7568 15.504 18.7823 15.4784 19.089V19.6513C15.4784 19.6513 15.504 20.0347 15.1959 20.0347L14.7338 20.0603C14.7338 20.0603 14.6311 20.1625 14.4 20.0858C14.4 20.0858 11.6271 20.137 11.55 20.1114L11.2163 20.1625C11.2163 20.1625 10.8568 20.4948 10.5744 20.2392L10.3433 20.0603C10.3433 20.0603 10.1892 20.0858 10.1122 20.0858C10.0352 20.0603 7.05685 20.1114 7.05685 20.1114C7.05685 20.1114 6.41497 20.1881 6.36362 19.958C6.36362 19.958 6.28659 19.1402 6.31227 19.0379C6.31227 19.0379 6.31226 18.8079 6.15821 18.7823C6.15821 18.7823 5.51633 18.7568 5.51633 18.6801C5.51633 18.6801 5.18255 18.4501 5.28525 18.1945C5.28525 18.1945 5.38795 17.8622 5.74741 17.8366C5.74741 17.8366 6.26091 17.9133 6.26091 17.76C6.26091 17.76 6.28659 17.6577 6.28659 17.5044C6.28659 17.5044 6.31227 15.5874 6.31227 15.4596C6.31227 15.4596 6.36362 15.2041 6.15821 15.2041C6.15821 15.2041 5.92714 15.2807 5.77308 15.1785C5.77308 15.1785 5.38795 15.2041 5.31093 14.8973C5.31093 14.8973 5.2339 14.6929 5.3366 14.5395C5.3366 14.5395 5.51633 14.1817 6.02984 14.3095C6.02984 14.3095 6.31227 14.3862 6.36362 14.1817L6.33794 13.4149C6.33794 13.4149 6.26091 13.2104 6.67172 13.0826C6.67172 13.0826 7.18523 13.236 7.36495 12.9804C7.36495 12.9804 7.54468 12.6226 7.69873 12.8782C7.69873 12.8782 8.00684 13.1593 8.85412 13.1338C8.85412 13.1338 10.3176 13.0315 10.3433 13.0826C10.3433 13.0826 10.7027 13.1338 10.8054 13.236L10.8825 13.2616Z" fill="#1E1E1E"/>
<path d="M10.8825 13.2353C10.8825 13.2353 10.9852 13.1842 11.0365 13.1075C11.0365 13.1075 11.3703 13.082 11.4217 13.0309L12.5 13.1075C12.5 13.1075 13.5527 13.1842 14.0149 12.852C14.0149 12.852 14.1689 12.852 14.2973 12.9031C14.2973 12.9031 14.5284 12.9542 14.5797 13.0564L15.1959 13.0309C15.1959 13.0309 15.5554 13.1331 15.5297 13.3631V13.6443C15.5297 13.6443 15.4527 14.2322 15.6324 14.2577H16.0946C16.0946 14.2577 16.4797 14.4366 16.4283 14.6667C16.4283 14.6667 16.454 14.9989 16.0946 15.05C16.0946 15.05 15.7608 15.1523 15.6324 15.1267C15.6324 15.1267 15.5297 15.2801 15.504 15.459L15.4784 17.606C15.4784 17.606 15.4527 17.836 15.7865 17.8104C15.7865 17.8104 16.3 17.7593 16.4283 18.0405C16.4283 18.0405 16.5567 18.5005 16.3 18.5772L16.0946 18.6794L15.6838 18.7561C15.6838 18.7561 15.504 18.7817 15.4784 19.0884V19.6507C15.4784 19.6507 15.504 20.0341 15.1959 20.0341L14.7338 20.0596C14.7338 20.0596 14.6311 20.1619 14.4 20.0852C14.4 20.0852 11.6271 20.1363 11.55 20.1107L11.2163 20.1874C11.2163 20.1874 10.8568 20.5197 10.5744 20.2641L10.3433 20.0852C10.3433 20.0852 10.1892 20.1107 10.1122 20.1107C10.0352 20.0852 7.05685 20.1363 7.05685 20.1363C7.05685 20.1363 6.41497 20.213 6.36362 19.9829C6.36362 19.9829 6.28659 19.1651 6.31226 19.0628C6.31226 19.0628 6.31226 18.8328 6.15821 18.8072C6.15821 18.8072 5.51633 18.7817 5.51633 18.705C5.51633 18.705 5.18255 18.4494 5.28525 18.2194C5.28525 18.2194 5.38795 17.8871 5.74741 17.8615C5.74741 17.8615 6.26091 17.9382 6.26091 17.7849C6.26091 17.7849 6.28659 17.6826 6.28659 17.5293C6.28659 17.5293 6.31226 15.6123 6.31226 15.4845C6.31226 15.4845 6.36362 15.229 6.15821 15.229C6.15821 15.229 5.92714 15.3056 5.77308 15.2034C5.77308 15.2034 5.38795 15.229 5.31093 14.9222C5.31093 14.9222 5.2339 14.7178 5.3366 14.5644C5.3366 14.5644 5.51633 14.2066 6.02984 14.3344C6.02984 14.3344 6.31227 14.4111 6.36362 14.2066L6.33794 13.4398C6.33794 13.4398 6.26091 13.2353 6.67172 13.1075C6.67172 13.1075 7.18523 13.2609 7.36495 13.0053C7.36495 13.0053 7.54468 12.6475 7.69873 12.9031C7.69873 12.9031 8.00684 13.1842 8.85412 13.1587C8.85412 13.1587 10.3176 13.0564 10.3433 13.1075C10.3433 13.1075 10.7027 13.1587 10.8054 13.2609L10.8825 13.2353Z" stroke="black" stroke-width="0.264139"/>
<path d="M11.3193 19.6003C11.3193 19.6003 11.5247 19.4981 11.6531 19.5492C11.7815 19.5748 13.6815 19.5236 13.6815 19.5236C13.6815 19.5236 14.5031 19.6003 14.6315 19.4725L14.8369 19.3958C14.8369 19.3958 14.9139 19.2936 14.9139 19.1658C14.9139 19.038 14.9396 18.6035 14.9396 18.6035L14.9909 18.4502C14.9909 18.4502 14.9652 18.2968 14.9909 13.9773C14.9909 13.9773 15.0423 13.6451 14.8369 13.4406C14.8369 13.4406 14.8369 13.3128 14.9139 13.3383C14.9909 13.3639 14.9396 13.3639 14.9396 13.3639C14.9396 13.3639 15.222 13.2872 15.2733 13.3895C15.2733 13.3895 15.4017 13.7728 15.299 14.0029C15.299 14.0029 15.2733 14.4629 15.5044 14.4629C15.5044 14.4629 15.6071 14.5652 15.7869 14.5141C15.7869 14.5141 16.1977 14.5652 16.1977 14.693C16.1977 14.693 16.1977 14.9741 15.9152 14.923L15.5301 14.9486C15.5301 14.9486 15.2733 14.9997 15.299 15.3064C15.3247 15.6131 15.2733 17.8112 15.2733 17.8112C15.2733 17.8112 15.2733 18.0668 15.6841 18.0668C15.6841 18.0668 16.1977 18.0412 16.1977 18.1946C16.1977 18.1946 16.326 18.5268 15.9666 18.5268C15.9666 18.5268 15.2733 18.5013 15.3247 18.7058C15.3247 18.7058 15.2733 19.1658 15.2477 19.2425C15.2477 19.2425 15.3247 19.6259 15.222 19.677C15.222 19.677 15.1706 19.8815 14.7342 19.8559C14.7342 19.8559 11.9356 19.8304 11.4991 19.8815C11.4991 19.8559 11.2423 19.8304 11.3193 19.6003Z" fill="white"/>
<path d="M10.8052 19.2935C10.8052 19.2935 11.0876 19.3446 11.0876 19.6002C11.0876 19.8558 11.1133 20.0091 10.9335 20.0347C10.7795 20.0602 10.5998 20.0091 10.5484 19.8046C10.4971 19.6002 10.5741 19.3446 10.8052 19.2935Z" fill="white"/>
<path d="M11.1388 19.166C11.1388 19.166 11.4212 18.9615 11.5496 19.0126C11.5496 19.0126 13.0388 19.1149 13.4752 19.0382C13.9374 18.9615 13.655 19.0126 13.655 19.0126C13.655 19.0126 14.0401 19.0126 14.1685 18.8593C14.1685 18.8593 14.2712 18.8337 14.3482 18.936L14.5793 19.1916C14.5793 19.1916 14.605 19.3449 14.3225 19.3449C14.3225 19.3449 11.678 19.3449 11.6009 19.3705C11.5753 19.3705 11.0874 19.4471 11.1388 19.166Z" fill="white"/>
<path d="M11.1388 19.166C11.1388 19.166 11.4212 18.9615 11.5496 19.0126C11.5496 19.0126 13.0388 19.1149 13.4752 19.0382C13.9374 18.9615 13.655 19.0126 13.655 19.0126C13.655 19.0126 14.0401 19.0126 14.1685 18.8593C14.1685 18.8593 14.2712 18.8337 14.3482 18.936L14.5793 19.1916C14.5793 19.1916 14.605 19.3449 14.3225 19.3449C14.3225 19.3449 11.678 19.3449 11.6009 19.3705C11.5753 19.3705 11.0874 19.4471 11.1388 19.166Z" stroke="black" stroke-width="0.278137"/>
<path d="M7.28808 13.4409C7.28808 13.4409 7.39079 13.4409 7.39079 13.6454L7.36511 18.5272C7.36511 18.5272 7.41646 18.8594 7.13403 19.0639C7.13403 19.0639 6.97998 19.2428 6.97998 18.9617L7.05701 13.9777C7.03133 13.9521 7.05701 13.5943 7.28808 13.4409Z" fill="white"/>
<path d="M7.28808 13.4409C7.28808 13.4409 7.39079 13.4409 7.39079 13.6454L7.36511 18.5272C7.36511 18.5272 7.41646 18.8594 7.13403 19.0639C7.13403 19.0639 6.97998 19.2428 6.97998 18.9617L7.05701 13.9777C7.03133 13.9521 7.05701 13.5943 7.28808 13.4409Z" stroke="black" stroke-width="0.278137"/>
<path d="M7.03075 13.4665C7.03075 13.4665 6.82535 13.8243 6.85103 13.901L6.82535 14.9745C6.82535 14.9745 6.79968 15.6646 6.82535 15.7413C6.85103 15.8179 6.79967 17.8627 6.79967 17.8627C6.79967 17.8627 6.774 18.2461 6.79967 18.3739V19.2429C6.79967 19.2429 6.774 19.6263 7.05643 19.524C7.05643 19.524 9.90639 19.4473 10.0861 19.4985C10.0861 19.4985 10.3429 19.5496 10.2402 19.6774C10.2402 19.6774 10.2402 19.7796 10.0604 19.7541C10.0604 19.7541 8.72532 19.8818 7.49291 19.8307C7.49291 19.8307 6.6713 19.8818 6.61995 19.7796C6.61995 19.7796 6.49157 19.7541 6.49157 19.294C6.49157 19.294 6.49157 18.8595 6.4659 18.7828C6.4659 18.7828 6.49157 18.5528 6.08077 18.5017C6.08077 18.5017 5.51591 18.6039 5.49023 18.2716C5.49023 18.2716 5.56726 18.0416 6.13212 18.0672C6.13212 18.0672 6.54292 18.1438 6.4659 17.8116L6.51725 15.409C6.51725 15.409 6.5686 15.0001 6.28617 14.9745C6.28617 14.9745 6.02942 14.9489 5.95239 15.0001C5.95239 15.0001 5.49023 15.0001 5.51591 14.7189C5.51591 14.7189 5.66996 14.4378 6.15779 14.4889C6.15779 14.4889 6.51725 14.5656 6.54292 14.1566C6.54292 14.1566 6.51725 13.3387 6.72265 13.2876C6.72265 13.3387 7.13345 13.3387 7.03075 13.4665Z" fill="white"/>
<path d="M7.51816 18.8066C7.51816 18.8066 7.74924 19.0367 8.10869 19.0367L10.3168 19.0622C10.3168 19.0622 10.5735 19.0878 10.5478 19.2156C10.5478 19.2156 10.5222 19.4201 10.2141 19.3434L7.54383 19.3178L7.26141 19.3434C7.26141 19.3434 7.056 19.3178 7.36411 18.9344L7.51816 18.8066Z" fill="white"/>
<path d="M7.51816 18.8066C7.51816 18.8066 7.74924 19.0367 8.10869 19.0367L10.3168 19.0622C10.3168 19.0622 10.5735 19.0878 10.5478 19.2156C10.5478 19.2156 10.5222 19.4201 10.2141 19.3434L7.54383 19.3178L7.26141 19.3434C7.26141 19.3434 7.056 19.3178 7.36411 18.9344L7.51816 18.8066Z" stroke="black" stroke-width="0.278137"/>
<path d="M14.3225 18.6029C14.3225 18.6029 14.5279 18.9863 14.6049 19.0374C14.6049 19.0374 14.7847 19.2419 14.7333 18.8841L14.759 14.2323C14.759 14.2323 14.7076 14.079 14.759 13.8234L14.5536 13.4655C14.5536 13.4655 14.3482 13.3122 14.3482 13.5678L14.3225 18.5262V18.6029Z" fill="white"/>
<path d="M14.3225 18.6029C14.3225 18.6029 14.5279 18.9863 14.6049 19.0374C14.6049 19.0374 14.7847 19.2419 14.7333 18.8841L14.759 14.2323C14.759 14.2323 14.7076 14.079 14.759 13.8234L14.5536 13.4655C14.5536 13.4655 14.3482 13.3122 14.3482 13.5678L14.3225 18.5262V18.6029Z" stroke="black" stroke-width="0.278137"/>
<path d="M10.7274 16.3803C10.7274 16.3803 10.7531 16.7637 10.7017 17.1471C10.676 17.3515 10.7788 18.2972 10.676 18.7829C10.676 18.7829 10.6504 18.9362 10.3166 18.8084C10.3166 18.8084 8.23689 18.8595 8.18554 18.7829C8.18554 18.7829 7.62069 18.8084 7.56934 18.5017C7.56934 18.5017 7.64636 16.2781 7.59501 16.2014C7.59501 16.2014 7.56934 15.0001 7.59501 14.8723C7.59501 14.8723 7.64636 13.7477 7.62069 13.6199C7.62069 13.6199 7.64636 13.3643 7.59501 13.2365C7.59501 13.2365 7.59501 13.0832 7.87744 13.1599C7.87744 13.1599 7.98014 13.3388 8.51932 13.2621C8.51932 13.2621 8.90445 13.3132 9.28958 13.2876C9.28958 13.2876 10.1112 13.211 10.3166 13.2876C10.3166 13.2876 10.6504 13.211 10.7274 13.5688L10.7017 14.5656L10.8044 14.8979L10.9071 14.8212L10.9585 14.5656L10.9842 13.4921C10.9842 13.4921 11.0612 13.2876 11.3179 13.2621C11.3179 13.2621 11.7287 13.211 11.7801 13.2365C11.8314 13.2621 12.7301 13.3132 12.9612 13.2621C13.1922 13.211 13.2436 13.4154 13.9882 13.0576C13.9882 13.0576 14.1936 13.0832 14.1936 13.211C14.1936 13.211 14.1165 14.5912 14.1936 14.8468C14.1936 14.8468 14.1936 17.3771 14.1422 17.556L14.1679 18.3739C14.1679 18.3739 14.1936 18.7317 13.6287 18.7573C13.6287 18.7573 13.9882 18.8084 11.7544 18.7317C11.7544 18.7317 11.395 18.7062 11.0098 18.8851C11.0098 18.8851 10.9328 18.8595 10.9328 18.6551C10.9328 18.6551 11.0098 17.8883 10.9328 17.1471L10.9071 16.3292L10.7274 16.3803Z" fill="white"/>
<path d="M9.26513 15.2293C9.26513 15.2293 9.31648 16.4306 9.26513 16.5839L9.23946 16.8395C9.23946 16.8395 9.31648 17.0184 9.39351 17.0696C9.39351 17.0696 9.47053 17.2996 9.29081 17.274C9.29081 17.274 8.88 17.2485 8.7773 17.2485C8.7773 17.2485 8.54622 17.2485 8.7773 16.9673C8.7773 16.9673 8.85433 16.8651 8.82865 16.5584C8.82865 16.5584 8.82865 15.2038 8.85433 15.1271C8.85433 15.1271 8.88 14.9482 8.7773 14.897L8.5719 14.9226L8.34082 15.1526C8.34082 15.1526 8.28947 15.3827 8.18677 15.1271V14.9993L8.34082 14.6159L8.44352 14.5903C8.44352 14.5903 8.59757 14.6926 8.72595 14.7181H9.49621L9.77864 14.5903C9.77864 14.5903 9.88134 14.6159 9.85566 14.7437C9.85566 14.7437 9.90701 15.1271 9.70161 15.1526C9.70161 15.1526 9.57323 15.1015 9.49621 14.9226C9.49621 14.9737 9.29081 14.8715 9.26513 15.2293Z" fill="#1E1E1E"/>
<path d="M12.8588 14.7944C12.8588 14.7944 12.2426 14.7432 12.2169 15.4078C12.2169 15.4078 12.1399 15.8678 12.8331 16.149C12.8331 16.149 13.3466 16.379 13.2953 16.6857C13.2953 16.6857 13.2182 17.248 12.7047 16.9669C12.7047 16.9669 12.448 16.8391 12.4737 16.6857C12.4737 16.6857 12.3966 16.5068 12.2939 16.5324C12.2939 16.5324 12.1912 16.5579 12.2426 17.0947C12.2426 17.0947 12.2426 17.2992 12.4737 17.0947L12.602 17.1202C12.602 17.1202 13.0385 17.4781 13.4236 17.0436C13.4236 17.0436 13.8344 16.6602 13.5263 16.2257C13.5263 16.2257 13.3209 15.8934 12.9358 15.74C12.9358 15.74 12.5764 15.5867 12.4993 15.3055C12.4993 15.3055 12.602 14.8199 13.0385 15.0755C13.0385 15.0755 13.1926 15.28 13.2953 15.3055C13.2953 15.3055 13.4236 15.3055 13.398 15.0244L13.3723 14.7944C13.3723 14.7944 13.3466 14.6154 13.1155 14.7944C13.1155 14.7944 12.9101 14.871 12.8588 14.7944Z" fill="#1E1E1E"/>
<path d="M10.8821 14.4622C10.9848 14.5389 11.0105 14.7178 11.0105 14.7178C11.3442 15.5868 11.601 16.8136 11.601 16.8136C11.678 16.967 11.8321 17.0948 11.8321 17.0948C12.1145 17.197 11.8321 17.2737 11.8321 17.2737C11.7294 17.3248 11.3442 17.2481 11.3442 17.2481C11.1388 17.2226 11.2415 17.1459 11.2415 17.1459C11.3186 17.0692 11.2672 16.737 11.2672 16.737C11.2415 16.6092 11.1132 16.4047 11.1132 16.4047C11.0361 16.3791 10.9334 16.5069 10.9334 16.5069C10.9334 16.5069 10.7537 16.5836 10.728 16.5069C10.7024 16.4302 10.5997 16.3791 10.5997 16.3791C10.3942 16.3791 10.3172 16.8647 10.3172 16.8647C10.4199 17.2737 10.3172 17.197 10.3172 17.197C10.2145 17.3248 9.90642 17.2226 9.90642 17.2226C9.75237 17.197 9.85507 17.0692 9.85507 17.0692C10.0348 17.0437 10.0861 16.8392 10.0861 16.8392C10.1632 16.737 10.6767 14.6155 10.6767 14.6155C10.728 14.5644 10.7537 14.3855 10.8821 14.4622ZM10.6253 15.5357C10.5997 15.6124 10.497 16.0724 10.497 16.0724L10.5997 16.2258C10.5997 16.2258 10.8564 16.2513 10.9591 16.2513C11.0618 16.2513 11.0618 16.1747 11.0618 16.098C11.0618 16.0213 10.8821 15.5357 10.8821 15.5357L10.8051 15.4334L10.6253 15.5357Z" fill="#1E1E1E"/>
<path d="M6.46579 10.5514C6.46579 10.5514 6.28606 11.1137 5.49013 10.5259L2.76854 10.4748C2.76854 10.4748 2.40909 10.577 2.35774 10.2192C2.35774 10.2192 2.43476 9.47797 2.38341 9.40129C2.38341 9.40129 2.40909 9.19682 2.04963 9.19682C2.04963 9.19682 1.51045 9.27349 1.48478 8.78787C1.48478 8.78787 1.38208 8.27669 2.15233 8.27669C2.15233 8.27669 2.38341 8.37893 2.40909 8.07222C2.40909 8.07222 2.38341 5.97637 2.38341 5.79746C2.38341 5.79746 2.46044 5.59298 2.07531 5.56742C2.07531 5.56742 1.53613 5.66966 1.48478 5.31183C1.48478 5.31183 1.4591 4.77509 1.81856 4.74953C1.81856 4.74953 2.25504 4.77509 2.33206 4.67286C2.33206 4.67286 2.43476 4.72397 2.40909 4.34059L2.43476 3.67605C2.43476 3.67605 2.48611 3.49714 2.76854 3.5227C2.76854 3.5227 3.28205 3.54825 3.3334 3.49714C3.3334 3.49714 3.4361 3.34378 3.48745 3.29266C3.48745 3.29266 3.7442 3.2671 3.79555 3.34378C3.79555 3.34378 4.18068 3.59937 5.66985 3.49714C5.66985 3.49714 5.90093 3.49714 5.95228 3.57381C5.95228 3.57381 6.23471 3.77829 6.38876 3.54825C6.38876 3.54825 6.61984 3.49714 7.36442 3.5227C7.36442 3.5227 8.16036 3.72717 8.69954 3.29266L8.87927 3.31822C8.87927 3.31822 9.11035 3.70161 9.2644 3.57381C9.2644 3.57381 9.75223 3.5227 9.82925 3.62493C9.82925 3.62493 9.98331 3.85496 9.90628 4.49394C9.90628 4.49394 9.80358 4.77509 10.2914 4.77509C10.2914 4.77509 10.8306 4.67286 10.7536 5.18404C10.7536 5.18404 10.9076 5.74634 10.009 5.66966C10.009 5.66966 9.90628 5.82301 9.90628 5.95081C9.90628 5.95081 9.8806 7.79107 9.8806 7.99554C9.8806 7.99554 9.85493 8.27669 10.2657 8.27669C10.2657 8.27669 10.7792 8.25113 10.8049 8.71119C10.8049 8.71119 10.8819 9.32461 10.1117 9.22238C10.1117 9.22238 9.8806 9.24794 9.85493 9.40129L9.80358 10.2192C9.80358 10.2192 9.82925 10.6281 9.3671 10.5259C9.29007 10.5259 6.82524 10.577 6.61984 10.5003C6.61984 10.5003 6.51714 10.4748 6.46579 10.5514Z" fill="#1E1E1E"/>
<path d="M6.46579 10.5514C6.46579 10.5514 6.28606 11.1137 5.49013 10.5259L2.76854 10.4748C2.76854 10.4748 2.40909 10.577 2.35774 10.2192C2.35774 10.2192 2.43476 9.47797 2.38341 9.40129C2.38341 9.40129 2.40909 9.19682 2.04963 9.19682C2.04963 9.19682 1.51045 9.27349 1.48478 8.78787C1.48478 8.78787 1.38208 8.27669 2.15233 8.27669C2.15233 8.27669 2.38341 8.37893 2.40909 8.07222C2.40909 8.07222 2.38341 5.97637 2.38341 5.79746C2.38341 5.79746 2.46044 5.59298 2.07531 5.56742C2.07531 5.56742 1.53613 5.66966 1.48478 5.31183C1.48478 5.31183 1.4591 4.77509 1.81856 4.74953C1.81856 4.74953 2.25504 4.77509 2.33206 4.67286C2.33206 4.67286 2.43476 4.72397 2.40909 4.34059L2.43476 3.67605C2.43476 3.67605 2.48611 3.49714 2.76854 3.5227C2.76854 3.5227 3.28205 3.54825 3.3334 3.49714C3.3334 3.49714 3.4361 3.34378 3.48745 3.29266C3.48745 3.29266 3.7442 3.2671 3.79555 3.34378C3.79555 3.34378 4.18068 3.59937 5.66985 3.49714C5.66985 3.49714 5.90093 3.49714 5.95228 3.57381C5.95228 3.57381 6.23471 3.77829 6.38876 3.54825C6.38876 3.54825 6.61984 3.49714 7.36442 3.5227C7.36442 3.5227 8.16036 3.72717 8.69954 3.29266L8.87927 3.31822C8.87927 3.31822 9.11035 3.70161 9.2644 3.57381C9.2644 3.57381 9.75223 3.5227 9.82925 3.62493C9.82925 3.62493 9.98331 3.85496 9.90628 4.49394C9.90628 4.49394 9.80358 4.77509 10.2914 4.77509C10.2914 4.77509 10.8306 4.67286 10.7536 5.18404C10.7536 5.18404 10.9076 5.74634 10.009 5.66966C10.009 5.66966 9.90628 5.82301 9.90628 5.95081C9.90628 5.95081 9.8806 7.79107 9.8806 7.99554C9.8806 7.99554 9.85493 8.27669 10.2657 8.27669C10.2657 8.27669 10.7792 8.25113 10.8049 8.71119C10.8049 8.71119 10.8819 9.32461 10.1117 9.22238C10.1117 9.22238 9.8806 9.24794 9.85493 9.40129L9.80358 10.2192C9.80358 10.2192 9.82925 10.6281 9.3671 10.5259C9.29007 10.5259 6.82524 10.577 6.61984 10.5003C6.61984 10.5003 6.51714 10.4748 6.46579 10.5514Z" stroke="black" stroke-width="0.264139"/>
<path d="M3.41101 3.8802C3.41101 3.8802 3.43668 4.21247 3.43668 4.28915C3.43668 4.36583 3.38533 8.96647 3.38533 8.96647C3.38533 8.96647 3.43668 9.32429 3.12858 9.50321C3.12858 9.50321 3.05155 9.52877 3.02588 9.29873L3.05155 4.4425C3.07723 4.4425 3.1029 3.85465 3.41101 3.8802Z" fill="white"/>
<path d="M3.41101 3.8802C3.41101 3.8802 3.43668 4.21247 3.43668 4.28915C3.43668 4.36583 3.38533 8.96647 3.38533 8.96647C3.38533 8.96647 3.43668 9.32429 3.12858 9.50321C3.12858 9.50321 3.05155 9.52877 3.02588 9.29873L3.05155 4.4425C3.07723 4.4425 3.1029 3.85465 3.41101 3.8802Z" stroke="black" stroke-width="0.278137"/>
<path d="M2.87192 9.55565C2.87192 9.55565 2.89759 5.00613 2.89759 4.9039C2.87192 4.82722 2.89759 4.98057 2.89759 4.98057C2.89759 4.98057 2.84624 4.18824 3.05164 3.85597C3.05164 3.85597 2.97462 3.57482 2.61516 3.93265V4.59719C2.61516 4.59719 2.61516 4.98057 2.28138 4.95502C2.28138 4.95502 1.89625 4.92946 1.71653 5.10837C1.71653 5.10837 1.61383 5.4662 1.99896 5.38952C1.99896 5.38952 2.58949 5.38952 2.61516 5.61955L2.58949 8.07323C2.58949 8.07323 2.71786 8.48217 2.25571 8.48217C2.25571 8.48217 1.71653 8.45661 1.71653 8.78888C1.71653 8.78888 1.81923 9.07003 2.30706 8.99335C2.30706 8.99335 2.64084 9.07003 2.64084 9.37674V9.99016C2.64084 9.99016 2.61516 10.2457 2.92327 10.2457H5.43945C5.43945 10.2457 5.56782 10.2713 5.56782 10.0924C5.56782 10.0924 5.54215 9.9646 5.36242 9.9646L3.25705 9.93904C3.25705 9.93904 2.89759 10.0413 2.87192 9.55565Z" fill="white"/>
<path d="M3.3082 9.58111C3.3082 9.58111 3.23117 9.81114 3.48792 9.76002H5.15682L5.61897 9.86226C5.61897 9.86226 6.08113 9.76002 5.61897 9.47887C5.61897 9.47887 4.12981 9.50443 4.00143 9.45331C4.00143 9.45331 3.69332 9.37663 3.6163 9.35107C3.6163 9.37663 3.46225 9.29996 3.3082 9.58111Z" fill="white"/>
<path d="M3.3082 9.58111C3.3082 9.58111 3.23117 9.81114 3.48792 9.76002H5.15682L5.61897 9.86226C5.61897 9.86226 6.08113 9.76002 5.61897 9.47887C5.61897 9.47887 4.12981 9.50443 4.00143 9.45331C4.00143 9.45331 3.69332 9.37663 3.6163 9.35107C3.6163 9.37663 3.46225 9.29996 3.3082 9.58111Z" stroke="black" stroke-width="0.278137"/>
<path d="M6.08082 9.80987C6.08082 9.80987 5.77272 9.80987 5.79839 10.2188C5.79839 10.2188 5.82407 10.5255 6.15785 10.5255C6.15785 10.5255 6.44028 10.4744 6.4146 10.1421C6.4146 10.1421 6.23488 9.73319 6.08082 9.80987Z" fill="white"/>
<path d="M6.31221 9.63198C6.31221 9.63198 6.46626 9.47862 6.54328 9.47862C6.54328 9.47862 8.16083 9.63198 8.44326 9.4275C8.44326 9.4275 8.67433 9.37639 8.75136 9.4275C8.75136 9.4275 8.98244 9.63198 8.98244 9.73421C8.98244 9.73421 8.95676 9.88757 8.67434 9.81089C8.67434 9.81089 6.82571 9.83645 6.74869 9.83645C6.77436 9.81089 6.26086 9.93869 6.31221 9.63198Z" fill="white"/>
<path d="M6.31221 9.63198C6.31221 9.63198 6.46626 9.47862 6.54328 9.47862C6.54328 9.47862 8.16083 9.63198 8.44326 9.4275C8.44326 9.4275 8.67433 9.37639 8.75136 9.4275C8.75136 9.4275 8.98244 9.63198 8.98244 9.73421C8.98244 9.73421 8.95676 9.88757 8.67434 9.81089C8.67434 9.81089 6.82571 9.83645 6.74869 9.83645C6.77436 9.81089 6.26086 9.93869 6.31221 9.63198Z" stroke="black" stroke-width="0.278137"/>
<path d="M6.56885 10.117C6.56885 10.117 6.56885 9.98923 6.79993 9.98923L9.08503 9.96367C9.08503 9.96367 9.29043 10.0659 9.29043 9.68252C9.29043 9.68252 9.36746 7.91894 9.39313 5.97645C9.39313 5.38859 9.41881 4.80073 9.39313 4.23843C9.39313 4.23843 9.34178 4.0084 9.29043 3.95728C9.29043 3.95728 9.29043 3.70169 9.57286 3.80392C9.57286 3.80392 9.80394 3.82948 9.75259 4.18731L9.77826 4.74961C9.77826 4.74961 9.72691 4.97964 10.1634 4.92852C10.1634 4.92852 10.5999 4.97964 10.6255 5.15856C10.6255 5.15856 10.7539 5.49083 10.2404 5.43971H9.85529C9.85529 5.43971 9.70124 5.54194 9.75259 5.72086L9.70124 8.07229C9.70124 8.07229 9.67556 8.48124 10.0607 8.45568C10.0607 8.45568 10.4715 8.43012 10.5485 8.55792C10.5485 8.55792 10.831 8.96686 10.2147 8.9413C10.2147 8.9413 9.82961 8.91574 9.75259 8.99242C9.75259 8.99242 9.70124 9.0691 9.64989 9.83587C9.64989 9.83587 9.67556 10.2959 9.34178 10.2448C9.34178 10.2448 7.08235 10.2704 6.87695 10.2193C6.8256 10.2448 6.59452 10.2959 6.56885 10.117Z" fill="white"/>
<path d="M3.64102 3.75296L3.58967 8.94146C3.58967 8.94146 3.564 9.17149 3.9748 9.22261C3.9748 9.22261 4.43696 9.27373 4.56533 9.22261C4.56533 9.22261 4.87344 9.19705 5.66937 9.24817C5.66937 9.24817 5.87478 9.45264 5.87478 9.19705C5.87478 9.19705 6.00315 5.00536 5.9518 4.11079C5.9518 4.11079 5.92613 3.7274 5.66937 3.7274C5.66937 3.7274 4.43696 3.82964 4.33426 3.7274L3.84643 3.59961C3.82075 3.59961 3.64102 3.62517 3.64102 3.75296Z" fill="white"/>
<path d="M8.80204 3.93234L8.77637 9.04416C8.77637 9.04416 8.90474 9.50422 9.11015 9.45311C9.11015 9.45311 9.13582 9.35087 9.1615 9.19752L9.23852 4.34129C9.23852 4.31573 9.08447 3.54895 8.80204 3.93234Z" fill="white"/>
<path d="M8.80204 3.93234L8.77637 9.04416C8.77637 9.04416 8.90474 9.50422 9.11015 9.45311C9.11015 9.45311 9.13582 9.35087 9.1615 9.19752L9.23852 4.34129C9.23852 4.31573 9.08447 3.54895 8.80204 3.93234Z" stroke="black" stroke-width="0.278137"/>
<path d="M6.20919 3.98273C6.20919 3.98273 6.15784 6.41085 6.18351 6.51308L6.15784 8.55781L6.08081 9.27347C6.08081 9.27347 6.18351 9.42682 6.26054 9.32458C6.26054 9.32458 6.77404 9.19679 7.10782 9.24791C7.10782 9.24791 8.16051 9.35014 8.36591 9.17123C8.36591 9.17123 8.51997 9.24791 8.57132 8.99231C8.57132 8.99231 8.64834 4.46835 8.59699 4.39168C8.59699 4.39168 8.67402 3.7527 8.62267 3.67602C8.62267 3.67602 8.59699 3.52267 8.34024 3.65046C8.34024 3.65046 8.36591 3.77826 6.82539 3.72714C6.82539 3.72714 6.23486 3.72714 6.20919 3.98273Z" fill="white"/>
<path d="M5.72089 5.46569L5.56684 5.7724C5.56684 5.7724 5.20739 7.3315 5.02766 7.66377C5.02766 7.66377 5.00199 7.99604 4.71956 7.74045C4.71956 7.74045 4.07767 5.74684 4.052 5.69572L3.8466 5.54236C3.8466 5.54236 3.71822 5.36345 3.9493 5.33789L4.53983 5.36345C4.53983 5.36345 4.74523 5.5168 4.4628 5.69572C4.4628 5.69572 4.48848 5.95131 4.84793 6.94811C4.84793 6.94811 4.95064 7.3315 5.05334 7.05035L5.38712 5.90019L5.28441 5.56792C5.28441 5.56792 5.18171 5.41457 5.33576 5.38901C5.33576 5.38901 5.66954 5.33789 5.72089 5.46569Z" fill="#1E1E1E"/>
<path d="M6.6455 5.74654L6.61983 7.459L6.56848 7.5868C6.56848 7.5868 6.41442 7.79127 6.51713 7.81683C6.51713 7.81683 6.36307 7.91907 7.54414 7.91907C7.54414 7.91907 8.00629 7.99574 7.87792 7.40789C7.87792 7.40789 7.82657 7.20341 7.67251 7.51012C7.67251 7.51012 7.62116 7.76571 7.03063 7.68904C7.03063 7.68904 6.90226 7.5868 6.90226 7.459V6.74335C6.90226 6.74335 6.87658 6.56444 7.15901 6.58999C7.15901 6.58999 7.46711 6.79447 7.51846 6.69223C7.51846 6.69223 7.62116 6.43664 7.51846 6.28329C7.51846 6.28329 7.36441 6.25773 7.36441 6.3344C7.36441 6.3344 7.26171 6.53888 6.97928 6.41108C6.97928 6.41108 6.8509 6.15549 6.92793 5.95102C6.92793 5.95102 6.90226 5.54207 7.15901 5.56763C7.15901 5.56763 7.49279 5.64431 7.51846 5.72098C7.51846 5.72098 7.59549 5.92546 7.67251 5.69543L7.59549 5.41428C7.59549 5.41428 7.54414 5.31204 7.46711 5.3376C7.46711 5.3376 6.92793 5.41428 6.8509 5.36316L6.46577 5.38872C6.46577 5.38872 6.41442 5.54207 6.59415 5.61875C6.59415 5.64431 6.6455 5.66987 6.6455 5.74654Z" fill="#1E1E1E"/>
</g>
<defs>
<clipPath id="clip0_205_697">
<rect width="96" height="24" fill="white" transform="translate(0.817383 0.736328)"/>
</clipPath>
</defs>
</svg>
