<svg width="99" height="25" viewBox="0 0 99 25" fill="none" xmlns="http://www.w3.org/2000/svg">
<g clip-path="url(#clip0_205_780)">
<path d="M37.1868 4.41211H40.5237L46.1977 14.7052L51.8716 4.41212H55.1363V21.3256H52.4138V8.36268L47.4385 17.3389H44.8846L39.9093 8.36268V21.3256H37.1868V4.41211Z" fill="#030303"/>
<path d="M63.9175 21.6271C62.6565 21.6271 61.5483 21.3472 60.5926 20.7874C59.6369 20.2276 58.892 19.4524 58.358 18.4618C57.8238 17.4711 57.5568 16.3355 57.5569 15.0549C57.5569 13.7583 57.8179 12.6106 58.3399 11.6118C58.8619 10.6133 59.5867 9.832 60.5143 9.26802C61.442 8.7044 62.5081 8.42252 63.7127 8.42236C64.9093 8.42236 65.9393 8.70625 66.8027 9.27404C67.6659 9.84198 68.3305 10.6373 68.7964 11.6601C69.2621 12.6831 69.495 13.8831 69.4951 15.2603V16.0092H60.2553C60.424 17.0403 60.8396 17.8518 61.5022 18.4436C62.1648 19.0356 63.002 19.3316 64.0139 19.3315C64.825 19.3315 65.5237 19.2107 66.11 18.9691C66.6962 18.7275 67.2463 18.3611 67.7604 17.8698L69.206 19.6457C67.7683 20.9667 66.0055 21.6272 63.9175 21.6271ZM65.9052 11.5936C65.3349 11.0098 64.588 10.7178 63.6646 10.7177C62.765 10.7177 62.0121 11.0158 61.4058 11.6118C60.7993 12.2078 60.4158 13.0092 60.2553 14.016H66.881C66.8006 12.985 66.4754 12.1776 65.9052 11.5936Z" fill="#030303"/>
<path d="M72.7965 10.9606H70.2908V8.72558H72.7965V5.02881H75.4227V8.72558H79.2294V10.9606H75.4227V16.6266C75.4227 17.5688 75.5833 18.2413 75.9045 18.6441C76.2256 19.0469 76.7758 19.2483 77.555 19.2481C77.9001 19.2481 78.1932 19.234 78.4344 19.2058C78.6753 19.1777 78.9403 19.1395 79.2294 19.091V21.3018C78.8995 21.3976 78.5634 21.4702 78.2235 21.5194C77.8346 21.5768 77.442 21.605 77.0489 21.6039C74.2139 21.6039 72.7964 20.0495 72.7965 16.9407V10.9606Z" fill="#030303"/>
<path d="M92.9153 21.3249H90.3373V19.5611C89.8795 20.2216 89.2973 20.731 88.5906 21.0893C87.8838 21.4476 87.0807 21.6268 86.1812 21.6271C85.073 21.6271 84.0912 21.3431 83.2358 20.7752C82.3805 20.2074 81.7079 19.4262 81.218 18.4316C80.7281 17.4369 80.4831 16.2992 80.4832 15.0187C80.4832 13.7301 80.7321 12.5904 81.2301 11.5996C81.7279 10.6091 82.4166 9.8319 83.2961 9.26802C84.1755 8.7044 85.1854 8.42252 86.3258 8.42236C87.1851 8.42236 87.9561 8.58951 88.6387 8.9238C89.3122 9.2505 89.8954 9.7379 90.3373 10.3433V8.72446H92.9153V21.3249ZM90.2892 13.134C90.0079 12.4172 89.5642 11.8514 88.958 11.4365C88.3515 11.0218 87.6508 10.8145 86.8559 10.8145C85.7314 10.8145 84.8359 11.193 84.1695 11.95C83.5028 12.7071 83.1695 13.73 83.1696 15.0187C83.1696 16.3155 83.4908 17.3424 84.1333 18.0994C84.7757 18.8565 85.6471 19.235 86.7475 19.2349C87.5585 19.2349 88.2813 19.0255 88.9158 18.6067C89.5501 18.1881 90.0079 17.6243 90.2892 16.9154V13.134Z" fill="#030303"/>
<path d="M24.0322 3.83887C21.8429 3.83887 20.1316 5.49249 18.5824 7.59309C16.4535 4.8747 14.6731 3.83887 12.5424 3.83887C8.1986 3.83887 4.87036 9.50812 4.87036 15.5087C4.87036 19.2636 6.68179 21.632 9.71589 21.632C11.8996 21.632 13.4702 20.5995 16.2622 15.705C16.2622 15.705 17.4261 13.6439 18.2268 12.224C18.5073 12.6783 18.8028 13.1678 19.1133 13.6926L20.4225 15.9014C22.973 20.1815 24.394 21.632 26.9689 21.632C29.9247 21.632 31.5697 19.2313 31.5697 15.3982C31.5697 9.11544 28.1664 3.83887 24.0322 3.83887ZM14.1331 14.3797C11.8695 17.9384 11.0863 18.736 9.82601 18.736C8.52898 18.736 7.7581 17.5941 7.7581 15.5578C7.7581 11.2015 9.9239 6.74712 12.5057 6.74712C13.9039 6.74712 15.0722 7.55688 16.8619 10.1263C15.1625 12.7403 14.1331 14.3797 14.1331 14.3797ZM22.6766 13.9318L21.1112 11.3135C20.6876 10.6226 20.2805 9.9866 19.8899 9.40558C21.3007 7.22173 22.4645 6.13357 23.8487 6.13357C26.7242 6.13357 29.0246 10.3794 29.0246 15.5946C29.0246 17.5825 28.3753 18.736 27.0301 18.736C25.7407 18.736 25.1248 17.882 22.6766 13.9318Z" fill="#030303"/>
</g>
<defs>
<clipPath id="clip0_205_780">
<rect width="98" height="24" fill="white" transform="translate(0.304688 0.736328)"/>
</clipPath>
</defs>
</svg>
