<svg width="91" height="25" viewBox="0 0 91 25" fill="none" xmlns="http://www.w3.org/2000/svg">
<path d="M79.1818 6.41372L77.2508 18.5165C77.2436 18.561 77.2462 18.6064 77.2584 18.6498C77.2707 18.6931 77.2923 18.7333 77.3217 18.7674C77.3512 18.8015 77.3877 18.8288 77.4289 18.8473C77.47 18.8659 77.5147 18.8752 77.5598 18.8747H79.8451C79.9257 18.8754 80.004 18.8473 80.0656 18.7954C80.1272 18.7435 80.1682 18.6713 80.1811 18.5919L82.1121 6.48911C82.1193 6.44466 82.1167 6.39918 82.1045 6.35585C82.0922 6.31251 82.0706 6.27238 82.0412 6.23825C82.0117 6.20412 81.9752 6.17683 81.9341 6.15829C81.8929 6.13975 81.8482 6.13041 81.8031 6.13092H79.5178C79.4369 6.12933 79.3582 6.15715 79.2964 6.20919C79.2346 6.26123 79.1939 6.33393 79.1818 6.41372ZM76.7416 9.94561H74.5733C74.4927 9.94482 74.4146 9.97288 74.353 10.0247C74.2915 10.0765 74.2506 10.1486 74.2378 10.2279L74.1661 10.6735C74.1661 10.6735 72.4819 8.85186 69.5002 10.0829C67.7896 10.7878 66.9685 12.244 66.619 13.3109C66.619 13.3109 65.5101 16.5532 68.0182 18.3379C68.0182 18.3379 70.3439 20.0544 72.9628 18.2323L72.9175 18.5165C72.907 18.5833 72.9188 18.6517 72.951 18.7111C72.9831 18.7706 73.0339 18.818 73.0956 18.8459C73.1365 18.8651 73.1813 18.8747 73.2265 18.8747H75.3963C75.4772 18.8763 75.5559 18.8485 75.6177 18.7964C75.6795 18.7444 75.7202 18.6717 75.7323 18.5919L77.052 10.3038C77.0594 10.2594 77.0568 10.2139 77.0444 10.1707C77.032 10.1274 77.0101 10.0874 76.9803 10.0536C76.9509 10.0192 76.9143 9.99165 76.873 9.9729C76.8318 9.95415 76.7869 9.94515 76.7416 9.94561ZM73.5509 14.5261C73.4664 15.1052 73.1728 15.6336 72.7255 16.0121C72.2762 16.3921 71.7044 16.5972 71.1155 16.5897C70.8845 16.5924 70.6546 16.559 70.4339 16.4908C69.4978 16.1931 68.9635 15.303 69.1171 14.3379C69.2023 13.7591 69.4961 13.2311 69.9435 12.8528C70.3924 12.4727 70.9637 12.2669 71.5525 12.2733C71.7835 12.2709 72.0135 12.3046 72.2341 12.3732C73.176 12.6689 73.7078 13.5606 73.5533 14.5266H73.5509V14.5261ZM61.9724 14.7551C63.1483 14.7551 64.2856 14.3384 65.1789 13.5807C66.0704 12.8256 66.6606 11.7765 66.8424 10.624C67.2221 8.22672 65.331 6.13429 62.6501 6.13429H58.3313C58.2507 6.13351 58.1725 6.16164 58.1109 6.21354C58.0493 6.26544 58.0085 6.33767 57.9958 6.41709L56.0643 18.5199C56.0538 18.5867 56.0655 18.655 56.0977 18.7145C56.1299 18.774 56.1807 18.8213 56.2424 18.8493C56.2838 18.8685 56.328 18.8781 56.3733 18.8781H58.66C58.7406 18.8788 58.8188 18.8507 58.8804 18.7988C58.942 18.7469 58.9828 18.6747 58.9955 18.5953L59.5625 15.0413C59.5744 14.9614 59.6151 14.8886 59.6769 14.8365C59.7387 14.7843 59.8175 14.7564 59.8984 14.758L61.9724 14.7551ZM63.8852 10.5151C63.7441 11.4014 63.052 12.0539 61.7279 12.0539H60.0351L60.5492 8.83073H62.2116C63.5805 8.83313 64.0262 9.63256 63.8852 10.5175V10.5151Z" fill="#030303"/>
<path d="M53.4571 10.1521L50.8416 14.5237L49.5141 10.1843C49.4934 10.115 49.4506 10.0544 49.3922 10.0115C49.3339 9.96864 49.2632 9.94586 49.1907 9.9466H46.8303C46.7693 9.94578 46.71 9.967 46.6633 10.0064C46.6167 10.0457 46.586 10.1005 46.5767 10.1607C46.5709 10.2007 46.5751 10.2414 46.5887 10.2793L48.9674 17.5889L46.8159 21.0334C46.7976 21.0618 46.7853 21.0936 46.7798 21.1268C46.7743 21.1601 46.7756 21.1941 46.7837 21.2268C46.7918 21.2595 46.8066 21.2903 46.827 21.3171C46.8474 21.344 46.8731 21.3664 46.9025 21.383C46.9419 21.4055 46.9866 21.4171 47.032 21.4166H49.5743C49.6469 21.4168 49.7182 21.3984 49.7816 21.3631C49.8449 21.3278 49.898 21.2767 49.9358 21.2149L56.5798 10.3317C56.6039 10.2938 56.6171 10.25 56.6181 10.2052C56.619 10.1603 56.6076 10.1161 56.5851 10.0772C56.5627 10.0382 56.5302 10.0059 56.491 9.98372C56.4518 9.96151 56.4074 9.95019 56.3623 9.95092H53.8209C53.748 9.95026 53.6762 9.96843 53.6124 10.0037C53.5487 10.0389 53.4951 10.0901 53.4571 10.1521ZM45.4923 9.9466H43.322C43.2413 9.94583 43.163 9.97401 43.1013 10.026C43.0396 10.078 42.9987 10.1503 42.9861 10.2299L42.9158 10.675C42.9158 10.675 41.2302 8.85333 38.2485 10.0844C36.5384 10.7892 35.7168 12.2455 35.3688 13.3124C35.3688 13.3124 34.2588 16.5547 36.7665 18.3394C36.7665 18.3394 39.0927 20.0559 41.7115 18.2338L41.6663 18.518C41.6556 18.5848 41.6673 18.6532 41.6995 18.7127C41.7317 18.7723 41.7826 18.8196 41.8444 18.8474C41.8853 18.8666 41.93 18.8762 41.9753 18.8762H44.1451C44.2256 18.8768 44.3037 18.8486 44.3652 18.7967C44.4268 18.7448 44.4677 18.6727 44.4805 18.5934L45.8008 10.3053C45.8115 10.2384 45.7999 10.1699 45.7677 10.1103C45.7356 10.0506 45.6846 10.0032 45.6227 9.97541C45.5816 9.95656 45.5375 9.94673 45.4923 9.9466ZM42.3011 14.5281C42.2157 15.1064 41.9221 15.634 41.4752 16.0122C41.0262 16.3921 40.4549 16.5977 39.8662 16.5912C39.6355 16.5938 39.4059 16.5604 39.1856 16.4923C38.2499 16.1946 37.7161 15.3044 37.8697 14.3389C37.9552 13.7588 38.2501 13.2299 38.699 12.8514C39.1496 12.4713 39.7228 12.2665 40.3128 12.2748C40.5439 12.2724 40.7744 12.306 40.9949 12.3747C41.9272 12.6704 42.4581 13.5616 42.304 14.5281H42.3011ZM30.7231 14.7566C31.897 14.756 33.0324 14.3393 33.9267 13.5808C34.8174 12.8257 35.4069 11.7769 35.5882 10.625C35.9685 8.22819 34.0769 6.13576 31.3969 6.13576H27.0776C26.997 6.13495 26.9188 6.16299 26.8572 6.21479C26.7955 6.26659 26.7546 6.33872 26.7417 6.41808L24.8164 18.5175C24.8056 18.5844 24.8173 18.6529 24.8494 18.7125C24.8816 18.7722 24.9326 18.8195 24.9945 18.8474C25.0354 18.8661 25.0802 18.8762 25.1254 18.8762H27.4107C27.4914 18.877 27.5698 18.8488 27.6314 18.7968C27.6931 18.7448 27.734 18.6724 27.7467 18.5929L28.3127 15.0389C28.3247 14.9591 28.3654 14.8864 28.4272 14.8344C28.4891 14.7824 28.5678 14.7545 28.6486 14.7561L30.7231 14.7566ZM32.6359 10.516C32.4948 11.4024 31.8032 12.0549 30.4791 12.0549H28.7863L29.2994 8.83173H30.9618C32.3312 8.83413 32.7764 9.63403 32.6359 10.5184V10.516Z" fill="#030303"/>
<path d="M15.9514 6.75778C16.0029 4.08534 13.7932 2.03516 10.7547 2.03516H4.46967C4.32321 2.03509 4.18154 2.08719 4.07018 2.18209C3.95881 2.27698 3.88508 2.40843 3.86225 2.55274L1.34401 18.2498C1.33275 18.321 1.33707 18.3937 1.35668 18.463C1.37629 18.5323 1.41072 18.5966 1.45761 18.6513C1.5045 18.7061 1.56272 18.75 1.62828 18.7802C1.69384 18.8104 1.76517 18.826 1.83736 18.826H5.56081L4.97891 22.4606C4.96764 22.5318 4.97196 22.6045 4.99157 22.6738C5.01118 22.7431 5.04561 22.8074 5.0925 22.8621C5.13939 22.9169 5.19762 22.9608 5.26317 22.991C5.32873 23.0212 5.40006 23.0368 5.47225 23.0368H8.5055C8.65182 23.0368 8.78226 22.9845 8.89392 22.8899C9.00463 22.7948 9.02292 22.6637 9.04602 22.5192L9.93645 17.2934C9.95907 17.1494 10.0327 16.9621 10.1439 16.8671C10.2551 16.772 10.3523 16.7201 10.4991 16.7201H12.3551C15.331 16.7201 17.8555 14.6099 18.3171 11.6753C18.6439 9.59251 17.7487 7.69741 15.9514 6.75778Z" fill="#030303"/>
<path d="M6.36554 13.0351L5.43805 18.9014L4.85566 22.5812C4.84446 22.6523 4.84885 22.725 4.86852 22.7943C4.8882 22.8636 4.92269 22.9278 4.96962 22.9825C5.01655 23.0372 5.07481 23.0811 5.14039 23.1112C5.20596 23.1413 5.2773 23.1569 5.34949 23.1568H8.55986C8.70618 23.1568 8.84767 23.1046 8.95886 23.0097C9.07004 22.9148 9.14361 22.7834 9.16632 22.6392L10.0125 17.291C10.0353 17.1468 10.1089 17.0154 10.2202 16.9205C10.3315 16.8256 10.473 16.7735 10.6194 16.7734H12.509C15.485 16.7734 18.0095 14.608 18.4716 11.6734C18.7989 9.59058 17.7477 7.695 15.9505 6.75537C15.9456 6.97719 15.9264 7.19854 15.8922 7.41796C15.4306 10.3516 12.9052 12.5175 9.93016 12.5175H6.97248C6.82606 12.5177 6.68449 12.5699 6.57324 12.6649C6.46199 12.7598 6.38834 12.8908 6.36554 13.0351Z" fill="#030303"/>
<path d="M5.43525 18.9036H1.70024C1.62807 18.9036 1.55675 18.888 1.49121 18.8578C1.42567 18.8277 1.36747 18.7837 1.32062 18.7289C1.27377 18.6741 1.23938 18.6099 1.21983 18.5406C1.20028 18.4713 1.19603 18.3985 1.20738 18.3274L3.72562 2.39747C3.74843 2.25323 3.82209 2.12185 3.93336 2.02697C4.04462 1.93209 4.18618 1.87993 4.33256 1.87988H10.7514C13.7899 1.87988 15.9996 4.08563 15.9481 6.75759C15.192 6.36196 14.3035 6.13581 13.3303 6.13581H7.979C7.83254 6.13574 7.69087 6.18785 7.5795 6.28274C7.46814 6.37764 7.3944 6.50908 7.37158 6.6534L6.36371 13.0373L5.43477 18.9036H5.43525Z" fill="#030303"/>
</svg>
