<svg width="82" height="26" viewBox="0 0 82 26" fill="none" xmlns="http://www.w3.org/2000/svg">
<g clip-path="url(#clip0_1_1811)">
<path d="M13.046 0.181641C6.08649 0.181641 0.444336 5.75398 0.444336 12.6276C0.444336 19.5015 6.08649 25.0734 13.046 25.0734C20.0063 25.0734 25.6478 19.5015 25.6478 12.6276C25.6478 5.75445 20.0063 0.182266 13.0458 0.182266L13.046 0.181641ZM18.8252 18.1323C18.7714 18.2193 18.7008 18.295 18.6173 18.355C18.5339 18.4151 18.4393 18.4583 18.3389 18.4822C18.2385 18.5061 18.1344 18.5102 18.0324 18.4943C17.9305 18.4784 17.8327 18.4427 17.7446 18.3895C14.7859 16.6045 11.0612 16.2002 6.67469 17.1901C6.47158 17.2357 6.25843 17.1998 6.0821 17.0903C5.90577 16.9808 5.78069 16.8066 5.73433 16.606C5.71128 16.5067 5.70827 16.4039 5.72549 16.3034C5.74271 16.203 5.77981 16.1069 5.83468 16.0206C5.88955 15.9343 5.9611 15.8596 6.04525 15.8006C6.12939 15.7417 6.22448 15.6997 6.32506 15.6771C11.1254 14.5938 15.243 15.0602 18.5648 17.0652C18.6528 17.1184 18.7295 17.1882 18.7902 17.2706C18.851 17.353 18.8947 17.4464 18.9188 17.5456C18.943 17.6447 18.9472 17.7475 18.9311 17.8482C18.915 17.9489 18.8789 18.0455 18.825 18.1324M20.3675 14.7435C20.0829 15.2001 19.4781 15.3443 19.016 15.0634C15.6288 13.0071 10.4652 12.4115 6.45874 13.6127C6.20935 13.6872 5.94021 13.661 5.71036 13.5398C5.48052 13.4186 5.30873 13.2123 5.23267 12.9662C5.15749 12.7199 5.18423 12.4542 5.30703 12.2274C5.42983 12.0005 5.63867 11.831 5.88779 11.756C10.4644 10.3845 16.1539 11.0488 20.0438 13.4096C20.5058 13.6905 20.6518 14.288 20.3673 14.7437M20.4996 11.2148C16.4387 8.83195 9.7375 8.61289 5.85979 9.77539C5.2371 9.96195 4.57866 9.61477 4.39008 8.99977C4.29936 8.70432 4.33114 8.38538 4.47843 8.11307C4.62572 7.84075 4.87647 7.63735 5.17556 7.54758C9.62692 6.21289 17.0269 6.4707 21.7029 9.21242C21.8362 9.29027 21.9526 9.39333 22.0455 9.5157C22.1384 9.63806 22.2059 9.77732 22.2442 9.9255C22.2825 10.0737 22.2908 10.2279 22.2687 10.3792C22.2465 10.5306 22.1944 10.6762 22.1152 10.8076C21.7842 11.3607 21.0588 11.543 20.5005 11.2146L20.4996 11.2148ZM34.729 11.6713C32.5531 11.1588 32.1664 10.7993 32.1664 10.0435C32.1664 9.32945 32.8466 8.84898 33.8592 8.84898C34.8404 8.84898 35.8125 9.21398 36.8328 9.96508C36.8629 9.98773 36.9019 9.9968 36.9396 9.99086C36.9585 9.98808 36.9766 9.98158 36.993 9.97173C37.0093 9.96187 37.0234 9.94888 37.0345 9.93352L38.0968 8.45445C38.1178 8.42514 38.1267 8.38902 38.1217 8.35346C38.1167 8.31789 38.0981 8.28556 38.0698 8.26305C36.8554 7.30102 35.489 6.83336 33.8909 6.83336C31.5419 6.83336 29.9002 8.2257 29.9002 10.218C29.9002 12.3545 31.3161 13.111 33.763 13.6949C35.8442 14.1685 36.1962 14.5652 36.1962 15.2746C36.1962 16.0609 35.4859 16.5498 34.3424 16.5498C33.0723 16.5498 32.0354 16.1263 30.8768 15.1363C30.8479 15.1122 30.8107 15.1 30.773 15.1023C30.7542 15.1036 30.7359 15.1086 30.7191 15.117C30.7022 15.1254 30.6873 15.137 30.6751 15.1512L29.4833 16.5512C29.4594 16.5792 29.4474 16.6154 29.45 16.652C29.4525 16.6886 29.4693 16.7228 29.4969 16.7474C30.8451 17.9365 32.5034 18.5637 34.2941 18.5637C36.8254 18.5637 38.461 17.1977 38.461 15.0829C38.4655 13.2984 37.3837 12.3101 34.7336 11.6734L34.729 11.6713ZM44.1883 9.55195C43.0913 9.55195 42.1915 9.97883 41.4481 10.8535V9.86914C41.4481 9.79133 41.3848 9.72805 41.3066 9.72805H39.3579C39.3202 9.72829 39.2842 9.74326 39.2577 9.76968C39.2312 9.79609 39.2164 9.8318 39.2164 9.86898V20.8079C39.2164 20.8851 39.2797 20.949 39.3579 20.949H41.3066C41.3443 20.9487 41.3803 20.9337 41.4069 20.9073C41.4334 20.8809 41.4482 20.8451 41.4481 20.8079V17.3552C42.1915 18.1771 43.0913 18.5799 44.1881 18.5799C46.2274 18.5799 48.2919 17.0299 48.2919 14.0665C48.2949 11.1024 46.2302 9.5518 44.1897 9.5518L44.1883 9.55195ZM46.0257 14.0665C46.0257 15.5748 45.0851 16.6285 43.7368 16.6285C42.405 16.6285 41.3998 15.5273 41.3998 14.0665C41.3998 12.6055 42.405 11.5045 43.7368 11.5045C45.0625 11.5045 46.0257 12.5816 46.0257 14.0665ZM53.5813 9.5518C50.9554 9.5518 48.8983 11.5487 48.8983 14.0987C48.8983 16.621 50.9418 18.5962 53.5497 18.5962C56.1845 18.5962 58.2477 16.6062 58.2477 14.0663C58.2477 11.5351 56.1981 9.55227 53.5813 9.55227V9.5518ZM53.5813 16.6432C52.1848 16.6432 51.1315 15.5345 51.1315 14.0655C51.1315 12.5899 52.1488 11.519 53.5497 11.519C54.9551 11.519 56.0145 12.6273 56.0145 14.0977C56.0145 15.5732 54.9912 16.6432 53.5813 16.6432ZM63.8545 9.72789H61.7102V7.56289C61.7102 7.48523 61.647 7.42195 61.5688 7.42195H59.6202C59.5824 7.42204 59.5461 7.4369 59.5193 7.4633C59.4925 7.48971 59.4774 7.52551 59.4772 7.56289V9.72773H58.5413C58.5036 9.72798 58.4676 9.74295 58.4411 9.76936C58.4146 9.79578 58.3998 9.83148 58.3998 9.86867V11.5224C58.3997 11.5596 58.4145 11.5954 58.441 11.6218C58.4675 11.6483 58.5036 11.6633 58.5413 11.6635H59.4772V15.9432C59.4772 17.6716 60.3486 18.5485 62.0686 18.5485C62.7667 18.5485 63.3461 18.4057 63.8923 18.0996C63.9144 18.0877 63.9328 18.07 63.9455 18.0485C63.9583 18.0271 63.9649 18.0026 63.9646 17.9777V16.4023C63.9645 16.3784 63.9582 16.355 63.9463 16.3342C63.9345 16.3135 63.9175 16.296 63.8969 16.2835C63.8764 16.2705 63.8528 16.263 63.8285 16.262C63.8041 16.2609 63.7799 16.2662 63.7583 16.2774C63.3837 16.4634 63.0211 16.5495 62.6147 16.5495C61.9903 16.5495 61.7104 16.2685 61.7104 15.6413V11.6645H63.8547C63.8924 11.6642 63.9284 11.6492 63.9549 11.6228C63.9814 11.5963 63.9962 11.5606 63.9961 11.5234V9.86961C63.9968 9.85116 63.9936 9.83277 63.9868 9.81556C63.9801 9.79835 63.9699 9.78268 63.9568 9.76949C63.9437 9.7563 63.9281 9.74586 63.9108 9.73882C63.8935 9.73178 63.875 9.72827 63.8563 9.72852L63.8545 9.72789ZM71.3244 9.73633V9.47039C71.3244 8.6882 71.6283 8.33945 72.3084 8.33945C72.715 8.33945 73.0414 8.41914 73.4072 8.53945C73.4286 8.54656 73.4514 8.5485 73.4737 8.54512C73.4961 8.54173 73.5172 8.53312 73.5355 8.52C73.5538 8.50687 73.5686 8.48962 73.5788 8.46969C73.5889 8.44975 73.5941 8.4277 73.5938 8.40539L73.5937 6.78398C73.5941 6.75369 73.5844 6.72409 73.5663 6.6997C73.5481 6.6753 73.5223 6.65744 73.4929 6.64883C73.1077 6.53539 72.6141 6.41914 71.8737 6.41914C70.0754 6.41914 69.1228 7.41992 69.1228 9.31227V9.71945H68.1869C68.1491 9.71953 68.1128 9.7344 68.086 9.7608C68.0592 9.78721 68.0441 9.82301 68.0439 9.86039V11.5226C68.0439 11.6002 68.1088 11.6637 68.1869 11.6637H69.1228V18.2632C69.1228 18.342 69.1877 18.4045 69.2659 18.4045H71.213C71.2928 18.4045 71.356 18.342 71.356 18.2632V11.664H73.1754L75.9623 18.263C75.6462 18.9557 75.3347 19.0938 74.9102 19.0938C74.5673 19.0938 74.2047 18.9929 73.836 18.7923C73.8011 18.7748 73.7607 18.7711 73.7231 18.7818C73.7045 18.788 73.6874 18.7979 73.6729 18.811C73.6584 18.824 73.6468 18.8399 73.6388 18.8576L72.9783 20.2888C72.963 20.3213 72.961 20.3583 72.9724 20.3923C72.9839 20.4263 73.008 20.4547 73.04 20.4716C73.7291 20.8402 74.3505 20.9977 75.1195 20.9977C76.5581 20.9977 77.3542 20.3349 78.0539 18.5545L81.4337 9.92883C81.4425 9.90751 81.4458 9.88434 81.4431 9.86147C81.4405 9.83859 81.4321 9.81673 81.4187 9.79789C81.406 9.77903 81.3887 9.76358 81.3685 9.75289C81.3483 9.7422 81.3257 9.73662 81.3028 9.73664H79.2743C79.2445 9.73645 79.2155 9.74547 79.1912 9.76243C79.1669 9.77938 79.1486 9.80342 79.1388 9.83117L77.0607 15.692L74.7854 9.82727C74.7752 9.80072 74.7571 9.77785 74.7334 9.76168C74.7098 9.7455 74.6818 9.73677 74.653 9.73664H71.3244V9.73633ZM66.9936 9.72789H65.0448C65.007 9.72806 64.9708 9.74295 64.9441 9.76934C64.9173 9.79573 64.9022 9.83149 64.902 9.86883V18.2632C64.902 18.342 64.9667 18.4045 65.0448 18.4045H66.9936C67.0719 18.4045 67.1366 18.342 67.1366 18.2632V9.86945C67.1367 9.85089 67.133 9.83251 67.1258 9.81535C67.1187 9.79819 67.1081 9.78261 67.0949 9.76949C67.0816 9.75638 67.0658 9.74599 67.0484 9.73893C67.031 9.73187 67.0124 9.72828 66.9936 9.72836V9.72789ZM66.0305 5.90539C65.2584 5.90539 64.6326 6.52258 64.6326 7.28477C64.6326 7.46608 64.6687 7.64562 64.7389 7.81313C64.8092 7.98065 64.9121 8.13285 65.042 8.26106C65.1718 8.38927 65.3259 8.49096 65.4955 8.56034C65.6651 8.62971 65.8469 8.66541 66.0305 8.66539C66.8025 8.66539 67.4269 8.04758 67.4269 7.28477C67.4268 6.91898 67.2797 6.56821 67.0178 6.30955C66.756 6.05089 66.4008 5.90551 66.0305 5.90539Z" fill="#030303"/>
</g>
<defs>
<clipPath id="clip0_1_1811">
<rect width="81" height="25" fill="white" transform="translate(0.444336 0.181641)"/>
</clipPath>
</defs>
</svg>
