<svg width="66" height="25" viewBox="0 0 66 25" fill="none" xmlns="http://www.w3.org/2000/svg">
<g clip-path="url(#clip0_205_695)">
<path d="M7.29942 6.97335H0.743652L0.743652 0.926758H21.1183V6.97335H14.5612V24.6142H7.29942V6.97335ZM22.2458 0.926758H42.0568V6.97335H29.5082V9.89005H42.0568V15.5799H29.5082V18.5676H42.0568V24.6142H22.2458V0.926758ZM43.2545 0.926758H55.1691C62.9952 0.926758 65.7437 6.75997 65.7437 12.7354C65.7437 19.9908 61.9359 24.6142 53.7588 24.6142H43.2545V0.926758ZM50.5168 18.5676H53.3355C57.8474 18.5676 58.4833 14.8693 58.4833 12.6644C58.4833 11.1699 57.9898 7.04454 52.7717 7.04454H50.4446L50.5168 18.5676Z" fill="#030303"/>
</g>
<defs>
<clipPath id="clip0_205_695">
<rect width="65" height="24" fill="white" transform="translate(0.817505 0.736328)"/>
</clipPath>
</defs>
</svg>
