<svg width="1403" height="295" viewBox="0 0 1403 295" fill="none" xmlns="http://www.w3.org/2000/svg">
<g opacity="0.15">
<path d="M70.4831 294.652H0.662467V0.496648H70.4831V294.652ZM285.871 62.0545V0.496648H352.387V294.652H277.195L205.309 177.321C183.275 140.689 167.988 113.972 159.45 97.1714C160.552 134.905 161.103 180.213 161.103 233.094V294.652H94.5873V0.496648H169.779L241.665 117.828C262.322 151.981 277.608 178.973 287.524 198.804C286.422 160.52 285.871 114.936 285.871 62.0545ZM592.595 0.496648V62.8808H446.344V116.176H581.44V175.255H446.344V294.652H376.523V0.496648H592.595ZM669.375 0.496648V232.268H804.058V294.652H599.554V0.496648H669.375ZM1065.01 0.496648L969.579 143.856L1071.21 294.652H990.236L965.861 257.883C954.293 240.531 941.623 220.976 927.852 199.217C923.721 206.103 911.189 225.658 890.256 257.883L865.881 294.652H786.558L888.604 145.096L792.755 0.496648H873.317L895.627 34.7873C895.902 35.6135 907.333 53.7917 929.918 89.3218C942.863 68.1139 954.293 49.9357 964.208 34.7873L986.931 0.496648H1065.01ZM1070.23 0.496648H1190.86C1239.34 0.496648 1276.52 13.5794 1302.41 39.7449C1328.3 65.6351 1341.25 101.578 1341.25 147.574C1341.25 193.571 1328.3 229.652 1302.41 255.817C1276.52 281.707 1239.34 294.652 1190.86 294.652H1070.23V0.496648ZM1140.05 235.573H1189.62C1214.96 235.573 1234.38 228.275 1247.88 213.677C1261.65 198.804 1268.53 176.77 1268.53 147.574C1268.53 118.379 1261.65 96.4828 1247.88 81.8852C1234.38 67.0122 1214.96 59.5757 1189.62 59.5757H1140.05V235.573ZM1402.9 294.652H1330.18V223.592H1402.9V294.652Z" fill="white"/>
</g>
</svg>
