<svg width="136" height="29" viewBox="0 0 136 29" fill="none" xmlns="http://www.w3.org/2000/svg">
<path d="M135.672 28.9993H128.668V22.1543H135.672V28.9993Z" fill="#0000FF"/>
<path d="M103.355 0.664062H114.976C119.646 0.664062 123.227 1.92429 125.721 4.44475C128.215 6.93869 129.462 10.401 129.462 14.8317C129.462 19.2624 128.215 22.738 125.721 25.2585C123.227 27.7524 119.646 28.9994 114.976 28.9994H103.355V0.664062ZM110.081 23.3084H114.857C117.298 23.3084 119.168 22.6053 120.468 21.1992C121.795 19.7665 122.458 17.644 122.458 14.8317C122.458 12.0194 121.795 9.91018 120.468 8.50402C119.168 7.07134 117.298 6.355 114.857 6.355H110.081V23.3084Z" fill="#030303"/>
<path d="M102.853 0.664062L93.6602 14.4735L103.45 28.9994H95.6501L93.3021 25.4574C92.1878 23.786 90.9673 21.9023 89.6408 19.8063C89.2428 20.4696 88.0356 22.3533 86.0193 25.4574L83.6713 28.9994H76.0303L85.8601 14.5929L76.6272 0.664062H84.3876L86.5366 3.96719C86.5632 4.04679 87.6642 5.79784 89.8398 9.22037C91.0867 7.17747 92.1878 5.42641 93.1429 3.96719L95.3317 0.664062H102.853Z" fill="#030303"/>
<path d="M64.7423 0.664062V22.99H77.716V28.9994H58.0166V0.664062H64.7423Z" fill="#030303"/>
<path d="M56.9397 0.664062V6.67337H42.8516V11.8072H55.8652V17.4981H42.8516V28.9994H36.126V0.664062H56.9397Z" fill="#030303"/>
<path d="M27.8009 6.59378V0.664062H34.2082V28.9994H26.9652L20.0405 17.6971C17.918 14.1684 16.4456 11.5949 15.6231 9.97651C15.7292 13.6113 15.7823 17.9757 15.7823 23.0696V28.9994H9.375V0.664062H16.618L23.5427 11.9663C25.5325 15.2562 27.005 17.8563 27.9601 19.7665C27.854 16.0787 27.8009 11.6878 27.8009 6.59378Z" fill="#030303"/>
<path d="M7.0528 28.9994H0.327148V0.664062H7.0528V28.9994Z" fill="#030303"/>
</svg>
