<svg width="1068" height="465" viewBox="0 0 1068 465" fill="none" xmlns="http://www.w3.org/2000/svg">
<path d="M0.414062 94.8652L168.147 94.8652C177.706 94.8652 186.423 100.331 190.587 108.936L246.096 223.651C248.535 228.692 253.643 231.894 259.243 231.894V231.894" stroke="#2A71FA" stroke-width="0.571745" stroke-dasharray="2.49 2.49"/>
<path d="M0.625 152.686L108.096 152.686C118.152 152.686 127.224 158.728 131.099 168.008L151.428 216.69C155.303 225.97 164.375 232.013 174.432 232.013L194.393 232.013" stroke="#2A71FA" stroke-width="0.571745" stroke-dasharray="2.49 2.49"/>
<path d="M461.656 231.896L312.79 231.895C303.287 231.895 294.611 237.298 290.418 245.826L252.059 323.86C247.867 332.389 239.19 337.792 229.687 337.792L0.362573 337.792" stroke="#2A71FA" stroke-width="0.571745" stroke-dasharray="2.49 2.49"/>
<path d="M0.414062 383.635L135.738 383.635C145 383.635 153.499 378.5 157.806 370.3L247.66 199.276C251.968 191.076 260.466 185.941 269.728 185.941L402.695 185.941C409.702 185.941 416.386 188.89 421.109 194.066L448.214 223.768C452.937 228.944 459.621 231.893 466.628 231.893L646.076 231.893" stroke="#2A71FA" stroke-width="0.571745" stroke-dasharray="2.49 2.49"/>
<path d="M0.367188 0.996094L223.101 0.996881C233.19 0.996917 242.283 7.07715 246.138 16.3998L328.791 216.283C332.646 225.605 341.739 231.686 351.828 231.686L353.178 231.686" stroke="#2A71FA" stroke-width="0.571745" stroke-dasharray="2.49 2.49"/>
<path d="M1067.05 231.894L436.39 231.893C426.835 231.893 418.12 237.354 413.955 245.954L316.453 447.232C312.287 455.832 303.573 461.293 294.018 461.293L0.388662 461.293" stroke="#2A71FA" stroke-width="0.571745" stroke-dasharray="2.49 2.49"/>
<path d="M0 232.057L338.939 232.057" stroke="#2A71FA" stroke-width="0.571745" stroke-dasharray="2.49 2.49"/>
<rect x="199.852" y="131.572" width="4.98575" height="4.98575" fill="black"/>
<rect x="35.8906" y="150.189" width="4.98575" height="4.98575" fill="black"/>
<rect x="267.156" y="70.0801" width="4.98575" height="4.98575" fill="black"/>
<rect x="164.484" y="229.4" width="4.98575" height="4.98575" fill="black"/>
<rect x="389.836" y="229.514" width="4.98575" height="4.98575" fill="black"/>
<rect x="218.32" y="459.064" width="4.98575" height="4.98575" fill="black"/>
<rect x="100.852" y="381.1" width="4.98575" height="4.98575" fill="black"/>
</svg>
