<svg width="48" height="90" viewBox="0 0 48 90" fill="none" xmlns="http://www.w3.org/2000/svg">
<path d="M1.36719 0.863281L1.36719 0.363281L0.367188 0.363281L0.367188 0.863281L1.36719 0.863281ZM47.2532 86.061C47.4485 85.8657 47.4485 85.5492 47.2532 85.3539L44.0712 82.1719C43.876 81.9766 43.5594 81.9766 43.3641 82.1719C43.1689 82.3672 43.1689 82.6838 43.3641 82.879L46.1925 85.7074L43.3641 88.5359C43.1689 88.7311 43.1689 89.0477 43.3641 89.243C43.5594 89.4382 43.876 89.4382 44.0712 89.243L47.2532 86.061ZM0.867188 0.863281L0.367188 0.863281L0.367184 82.0971L0.867184 82.0971L1.36718 82.0971L1.36719 0.863281L0.867188 0.863281ZM4.47757 85.7074L4.47757 86.2074L46.8997 86.2074L46.8997 85.7074L46.8997 85.2074L4.47757 85.2074L4.47757 85.7074ZM0.867184 82.0971L0.367184 82.0971C0.367184 84.3672 2.20747 86.2074 4.47757 86.2074L4.47757 85.7074L4.47757 85.2074C2.75975 85.2074 1.36718 83.8149 1.36718 82.0971L0.867184 82.0971Z" fill="black"/>
</svg>
